<svg width="101" height="100" viewBox="0 0 101 100" fill="none" xmlns="http://www.w3.org/2000/svg">
<path d="M0.5 6C0.5 2.68629 3.18629 0 6.5 0H94.5C97.8137 0 100.5 2.68629 100.5 6V72.5147C100.5 74.106 99.8679 75.6321 98.7426 76.7574L77.2574 98.2426C76.1321 99.3679 74.606 100 73.0147 100H6.5C3.18629 100 0.5 97.3137 0.5 94V6Z" fill="#1226AA"/>
<path fill-rule="evenodd" clip-rule="evenodd" d="M55.9828 29C55.9828 28.4477 55.5351 28 54.9828 28H45.9828C45.4305 28 44.9828 28.4477 44.9828 29V32.5527C44.9828 32.9846 44.7043 33.3651 44.2999 33.5168C42.4703 34.2035 40.7854 35.186 39.3035 36.4062C38.9699 36.6808 38.5012 36.7317 38.1271 36.5157L35.0461 34.7369C34.5678 34.4608 33.9562 34.6246 33.68 35.1029L29.18 42.8972C28.9039 43.3755 29.0678 43.987 29.5461 44.2632L32.625 46.0408C32.9987 46.2566 33.1891 46.6873 33.1188 47.113C32.9638 48.0524 32.8832 49.0168 32.8832 50C32.8832 50.9833 32.9638 51.9478 33.1188 52.8871C33.1891 53.3129 32.9988 53.7436 32.6251 53.9594L29.5464 55.7368C29.0681 56.013 28.9042 56.6245 29.1804 57.1028L33.6804 64.8971C33.9565 65.3754 34.5681 65.5392 35.0464 65.2631L38.1272 63.4844C38.5013 63.2684 38.97 63.3193 39.3036 63.5939C40.7855 64.814 42.4703 65.7966 44.2999 66.4832C44.7043 66.635 44.9828 67.0154 44.9828 67.4474V71C44.9828 71.5523 45.4305 72 45.9828 72H54.9828C55.5351 72 55.9828 71.5523 55.9828 71V67.4477C55.9828 67.0157 56.2612 66.6353 56.6657 66.4835C58.4954 65.7969 60.1804 64.8144 61.6624 63.5942C61.9959 63.3196 62.4647 63.2687 62.8388 63.4847L65.9191 65.2632C66.3974 65.5393 67.009 65.3755 67.2852 64.8972L71.7852 57.1029C72.0613 56.6246 71.8974 56.013 71.4191 55.7369L68.3412 53.9598C67.9675 53.7441 67.7772 53.3134 67.8474 52.8876C68.0025 51.9481 68.0832 50.9835 68.0832 50C68.0832 49.0166 68.0025 48.0521 67.8475 47.1126C67.7772 46.6868 67.9675 46.2561 68.3412 46.0403L71.4195 44.2631C71.8978 43.987 72.0616 43.3754 71.7855 42.8971L67.2855 35.1028C67.0094 34.6245 66.3978 34.4607 65.9195 34.7368L62.8389 36.5154C62.4648 36.7314 61.996 36.6805 61.6625 36.4059C60.1805 35.1857 58.4954 34.2032 56.6657 33.5166C56.2612 33.3648 55.9828 32.9843 55.9828 32.5524V29Z" fill="white"/>
<rect x="50.5" y="41" width="12.7279" height="12.7279" rx="1" transform="rotate(45 50.5 41)" fill="#1226AA"/>
</svg>
