<svg width="101" height="100" viewBox="0 0 101 100" fill="none" xmlns="http://www.w3.org/2000/svg">
<path d="M0.498047 6C0.498047 2.68629 3.18434 0 6.49805 0H94.498C97.8118 0 100.498 2.68629 100.498 6V72.5147C100.498 74.106 99.8659 75.6321 98.7407 76.7574L77.2554 98.2426C76.1302 99.3679 74.6041 100 73.0128 100H6.49805C3.18434 100 0.498047 97.3137 0.498047 94V6Z" fill="#1226AA"/>
<path d="M50.6799 59.6652L55.0134 62.2142C55.3147 62.3915 55.6867 62.3985 55.9945 62.2328L68.3963 55.5549C69.4241 55.0015 70.4055 56.3574 69.5586 57.1608L56.3681 69.6749C55.9154 70.1044 55.1843 70.0189 54.8429 69.4967L49.3359 61.0744C48.7574 60.1895 49.7687 59.1291 50.6799 59.6652Z" fill="white"/>
<rect x="30.498" y="30" width="40" height="14" rx="1" fill="white"/>
<rect x="30.498" y="40" width="40" height="4" rx="1" fill="white"/>
<rect x="30.498" y="48" width="14" height="7" rx="1" fill="white"/>
</svg>
