<svg width="101" height="100" viewBox="0 0 101 100" fill="none" xmlns="http://www.w3.org/2000/svg">
<path d="M0.5 6C0.5 2.68629 3.18629 0 6.5 0H94.5C97.8137 0 100.5 2.68629 100.5 6V72.5147C100.5 74.106 99.8679 75.6321 98.7426 76.7574L77.2574 98.2426C76.1321 99.3679 74.606 100 73.0147 100H6.5C3.18629 100 0.5 97.3137 0.5 94V6Z" fill="#1226AA"/>
<path fill-rule="evenodd" clip-rule="evenodd" d="M54.6269 49.9207C53.9972 49.9207 53.5242 49.3457 53.6457 48.7278L57.4588 29.3369C57.6464 28.3829 56.4998 27.7494 55.792 28.416L34.2998 48.6561C33.6407 49.2769 34.08 50.3841 34.9854 50.3841H46.3264C46.9561 50.3841 47.4291 50.9592 47.3076 51.577L43.4945 70.9679C43.3069 71.922 44.4535 72.5555 45.1613 71.8889L66.6535 51.6487C67.3126 51.028 66.8733 49.9207 65.9679 49.9207L54.6269 49.9207Z" fill="white"/>
</svg>
