<svg width="279" height="150" viewBox="0 0 279 150" fill="none" xmlns="http://www.w3.org/2000/svg">
<path d="M278.5 138C278.5 144.351 273.351 149.5 267 149.5H12C5.64874 149.5 0.5 144.351 0.5 138V40.4706C0.5 37.4206 1.71161 34.4955 3.86826 32.3388L32.3388 3.86827C34.4955 1.71161 37.4206 0.5 40.4706 0.5H267C273.351 0.5 278.5 5.64873 278.5 12V138Z" stroke="#C1C5C8"/>
<path d="M68.6665 81.5997C68.6585 79.5789 68.6466 77.5294 68.6426 75.4783C68.6386 73.4271 68.6426 71.381 68.6426 69.3315V57.0886C68.5096 56.9404 68.4763 56.8714 68.4431 56.8697C67.2087 56.8697 65.9158 56.5868 64.7519 56.9387C62.8152 57.5214 62.0556 58.3786 62.0157 61.654C61.9426 67.7974 61.9944 73.9475 61.9944 80.0908C61.9944 80.3721 61.9944 80.6533 61.9944 80.9328C61.9851 81.5761 61.6885 81.8355 61.2216 81.8271C59.0739 81.79 56.9257 81.7473 54.777 81.6991C54.5815 81.6991 54.3859 81.657 54.1199 81.6267C54.0666 81.3011 54.0306 80.9714 54.0122 80.6398C54.0122 72.7821 53.9749 64.9244 54.0308 57.0634C54.0534 54.0186 55.4181 50.8139 58.0213 49.9668C59.4432 49.5021 60.9223 49.081 62.3789 49.0625C69.4048 48.9699 76.432 48.9968 83.4592 49.0373C85.2549 49.0474 87.0679 49.2646 88.6774 50.3845C90.0076 51.3158 90.9281 52.7186 91.3125 54.672C91.7036 56.6575 91.7195 58.6396 91.6996 60.6672C91.637 66.8695 91.6743 73.0718 91.6809 79.2741C91.6809 79.7793 91.7568 80.2845 91.778 80.7813C91.81 81.4987 91.5519 81.8287 90.9959 81.817C88.8934 81.7754 86.7899 81.7333 84.6856 81.6907C84.4462 81.6907 84.2054 81.6536 83.8942 81.63C83.841 81.3134 83.7505 81.0271 83.7505 80.7425C83.7612 74.5419 83.7984 68.3413 83.7864 62.1407C83.7624 61.1365 83.6405 60.1398 83.4233 59.1735C83.1905 58.03 82.56 57.4507 81.617 57.1105C80.0966 56.5649 78.5855 56.8478 77.0691 56.8175C77.0106 56.8175 76.9521 56.8849 76.8031 56.9859C76.7858 57.3412 76.7512 57.7488 76.7512 58.1647C76.7512 65.5172 76.7512 72.8708 76.7512 80.2255C76.7512 80.5337 76.8151 80.8992 76.7007 81.1332C76.549 81.433 76.2551 81.8203 76.0196 81.822C73.7171 81.8372 71.4146 81.7799 69.1121 81.7395C68.9614 81.7048 68.8126 81.6581 68.6665 81.5997Z" fill="black"/>
<path d="M124.419 49.1112V56.6203C124.001 56.6725 123.66 56.7516 123.319 56.7516C117.888 56.7516 112.458 56.7297 107.029 56.7904C106.189 56.7988 105.326 57.1019 104.524 57.4539C103.509 57.8985 102.795 59.9311 103.126 61.4417H124.424V68.9625C123.926 69.0434 123.493 69.1764 123.06 69.1731C119.891 69.1528 116.724 69.0905 113.557 69.0686C110.542 69.0507 107.527 69.0507 104.512 69.0686C104.033 69.0686 103.556 69.1798 103.129 69.237C102.765 70.3485 103.236 72.3289 104.085 72.9891C104.669 73.4421 105.37 73.693 106.044 73.9018C106.587 74.0409 107.141 74.0974 107.695 74.0702C112.281 74.0702 116.868 74.0556 121.456 74.0264C122.419 74.0264 123.382 74.0264 124.424 74.0264V81.5473C124.148 81.6172 123.868 81.6639 123.586 81.6871C116.404 81.6871 109.221 81.7191 102.038 81.6568C100.293 81.6664 98.5875 80.9962 97.1535 79.737C96.2144 78.9051 95.6305 77.6555 95.3432 76.2999C95.0482 74.9265 94.8869 73.5127 94.863 72.0898C94.8045 67.5176 94.8218 62.9421 94.8524 58.37C94.8643 56.4889 95.0346 54.6365 95.8513 52.9676C96.7625 51.1152 98.1126 50.0222 99.7394 49.5995C101.061 49.2488 102.405 49.0599 103.755 49.0354C110.337 48.9798 116.924 49.0085 123.503 49.0118C123.79 49.0152 124.067 49.0691 124.419 49.1112Z" fill="black"/>
<path d="M161.829 49.1097C162.176 49.0693 162.435 49.0137 162.695 49.0137C169.364 49.0137 176.035 48.9952 182.704 49.0339C183.833 49.0498 184.959 49.1884 186.07 49.4482C189.395 50.2026 191.187 53.3215 191.257 57.3985C191.348 62.5297 191.317 67.6711 191.257 72.799C191.241 74.1462 191.136 75.4833 190.692 76.812C189.842 79.36 188.282 80.6146 186.302 81.2124C185.356 81.5023 184.386 81.6548 183.412 81.6671C177.141 81.7092 170.87 81.689 164.599 81.6991C163.934 81.6991 163.269 81.7563 162.612 81.8203C162.063 81.8742 161.76 81.6166 161.754 80.8908C161.754 80.6381 161.754 80.3855 161.754 80.1329C161.754 70.736 161.754 61.338 161.754 51.9389C161.754 51.3511 161.697 50.76 161.704 50.1757C161.726 49.8171 161.767 49.4609 161.829 49.1097ZM169.798 73.8532C170.616 73.9408 171.338 74.0856 172.059 74.0788C174.627 74.0603 177.199 74.0788 179.762 73.9104C182.248 73.7521 183.042 72.4891 183.255 69.5016C183.434 66.9756 183.339 64.399 183.272 61.8477C183.24 60.61 183.186 59.3368 182.463 58.2877C181.599 57.0297 180.447 56.799 179.271 56.772C176.369 56.7148 173.465 56.7501 170.561 56.7552C170.327 56.7552 170.092 56.8175 169.798 56.8579V73.8532Z" fill="black"/>
<path d="M127.599 74.1494C128.032 74.0651 128.467 74.0089 128.904 73.981C129.5 73.981 130.101 74.0888 130.692 74.0904C136.145 74.0994 141.598 74.0994 147.053 74.0904C147.521 74.0904 147.984 73.9456 148.442 73.8698C148.567 72.9756 148.176 72.6742 147.765 72.4704C146.176 71.6845 144.579 70.9188 142.976 70.1734C141.357 69.4206 139.727 68.71 138.106 67.9639C136.257 67.1118 134.401 66.2799 132.572 65.3655C131.468 64.8114 130.33 64.2591 129.35 63.4356C127.835 62.1557 127.524 60.1332 127.595 57.9423C127.646 56.2414 128.109 54.6938 128.616 53.1882C128.875 52.4203 129.434 51.6911 130.003 51.2331C131.918 49.6922 134.08 49.0438 136.328 49.0304C143.443 48.9899 150.561 49.0135 157.672 49.0152C157.91 49.0152 158.147 49.0708 158.47 49.1112V56.8409C158.101 56.8729 157.779 56.9268 157.458 56.9285C150.964 56.9285 144.47 56.9285 137.976 56.9285C137.776 56.9285 137.577 56.9285 137.377 56.9285C136.897 56.9285 136.454 57.0514 136.381 57.757C136.308 58.4626 136.795 58.5199 137.158 58.695C139.308 59.7341 141.453 60.7832 143.608 61.8021C145.162 62.538 146.734 63.2116 148.286 63.9509C150.748 65.1297 153.208 66.3085 155.653 67.5227C156.929 68.161 157.697 69.4055 158.108 71.0592C158.568 72.9116 158.921 74.8129 158.289 76.6434C157.181 79.8549 155.47 81.7225 152.464 81.7056C145.083 81.6652 137.699 81.6905 130.322 81.7056C129.681 81.7056 129.04 81.7679 128.402 81.8302C127.949 81.8757 127.615 81.6618 127.603 81.0859C127.585 78.8411 127.599 76.603 127.599 74.1494Z" fill="black"/>
<path d="M224.001 81.6639H215.996C215.269 78.2504 214.542 74.8436 213.794 71.3341C213.456 71.2516 213.118 71.1034 212.781 71.1C210.521 71.0787 208.26 71.0787 205.998 71.1C204.695 71.1101 204.546 71.2516 204.228 72.8464C203.696 75.5038 203.196 78.1679 202.7 80.8354C202.55 81.6404 202.084 81.834 201.552 81.829C199.383 81.8037 197.214 81.7448 195.046 81.6926C194.857 81.6633 194.67 81.6172 194.486 81.5545C194.703 80.3521 194.896 79.1867 195.127 78.0349C195.702 75.1597 196.287 72.2884 196.883 69.421C197.338 67.2318 197.786 65.0324 198.277 62.8533C198.67 61.1053 198.989 59.3051 199.572 57.6581C200.652 54.6066 202.212 51.9677 204.408 50.0176C205.138 49.3651 206.01 49.0177 206.903 49.024C208.521 49.024 210.14 48.9668 211.754 49.0409C213.266 49.1116 214.499 50.0311 215.503 51.4187C216.081 52.2203 216.612 53.0809 217.14 53.9448C218.537 56.2081 219.158 58.9009 219.755 61.6038C220.464 64.8034 221.173 68.0149 221.861 71.228C222.34 73.4711 222.776 75.7294 223.243 77.9759C223.439 78.9207 223.667 79.8536 223.874 80.7933C223.923 80.9836 223.937 81.1992 224.001 81.6639ZM206.056 63.4562C206.707 63.4562 207.203 63.4562 207.7 63.4562C208.982 63.4562 210.265 63.4781 211.546 63.4764C211.966 63.4764 212.378 63.2811 212.237 62.6546C211.83 60.8577 211.458 59.0306 210.233 57.7473C209.67 57.1545 208.937 57.0737 208.36 57.6412C206.91 59.0575 206.492 61.1171 206.056 63.4562Z" fill="black"/>
<path d="M54.0684 101.325V96.1042H158.486V101.325H54.0684Z" fill="black"/>
<path d="M54.0703 94.3495V91.6753H158.497V94.3495H54.0703Z" fill="black"/>
<path d="M54.0723 89.8431V88.4958H158.479V89.8431H54.0723Z" fill="black"/>
<path d="M171.755 92.7028H169.651C169.298 91.6772 168.713 90.9531 167.789 90.8049C166.458 90.5893 165.369 91.4414 164.951 93.0564C164.534 94.6714 164.532 96.2679 165.196 97.7835C165.688 98.9101 166.526 99.321 167.491 99.2991C168.455 99.2772 169.167 98.6626 169.571 97.5292C169.606 97.4268 169.632 97.3193 169.647 97.2092C169.64 97.1048 169.623 97.0018 169.596 96.9027L167.544 96.7832V94.5468H171.754V101.315H170.324C170.232 100.978 170.142 100.641 170.037 100.262C169.969 100.296 169.873 100.306 169.826 100.372C168.053 102.915 163.609 102.115 162.669 97.6168C162.065 94.7236 162.213 91.8911 164.143 89.7153C164.587 89.2103 165.12 88.8466 165.698 88.6544C167.451 88.1272 169.188 88.0902 170.642 89.7574C171.295 90.5051 171.727 91.4296 171.755 92.7028Z" fill="black"/>
<path d="M180.576 95.3431C181.6 96.1463 181.567 97.3925 181.591 98.6454C181.607 99.4875 181.724 100.329 181.807 101.283H179.485C179.425 100.254 179.343 99.2618 179.315 98.2682C179.277 96.9109 179.005 96.5353 177.919 96.5118C177.284 96.4983 176.648 96.5118 175.86 96.5118V101.363H173.66V88.7484C173.909 88.6746 174.162 88.6251 174.417 88.6002C175.747 88.585 177.077 88.5547 178.407 88.6002C179.46 88.6406 180.502 88.8528 181.235 89.9643C182.265 91.5405 182.026 93.7062 180.576 95.3431ZM175.911 94.0767C176.888 94.0767 177.773 94.1356 178.638 94.0531C178.887 94.046 179.124 93.9157 179.298 93.6899C179.472 93.4642 179.569 93.1611 179.569 92.8456C179.605 92.1602 179.516 91.3755 178.941 91.2862C177.959 91.133 176.954 91.2441 175.913 91.2441L175.911 94.0767Z" fill="black"/>
<path d="M187.942 88.3829C190.636 88.1556 192.502 90.6631 192.731 94.208C192.877 96.4258 192.586 98.5225 191.276 100.191C189.243 102.79 184.267 102.477 183.296 97.4009C183.021 95.9627 182.949 94.5296 183.217 93.078C183.691 90.5149 185.296 88.1572 187.942 88.3829ZM190.573 95.2369C190.454 94.4269 190.391 93.6691 190.223 92.9517C190.093 92.3507 189.814 91.8181 189.428 91.4311C189.042 91.0441 188.569 90.8229 188.077 90.7995C186.996 90.717 186.148 91.3569 185.701 92.6519C185.148 94.2534 185.198 95.8701 185.692 97.4834C186.091 98.7936 186.943 99.2567 187.953 99.314C188.435 99.3404 188.91 99.1682 189.308 98.8233C189.706 98.4783 190.005 97.9792 190.16 97.4009C190.36 96.6987 190.44 95.9442 190.573 95.2369Z" fill="black"/>
<path d="M194.208 88.6895H196.368C196.415 89.0435 196.447 89.4004 196.464 89.7588C196.471 92.0878 196.502 94.4185 196.464 96.7475C196.42 99.1608 197.767 99.4807 199.107 99.0463C199.753 98.8374 200.05 98.1706 200.058 97.0473C200.072 94.661 200.058 92.2764 200.07 89.8902C200.07 89.5332 200.107 89.1745 200.133 88.7113H202.244C202.291 89.0054 202.322 89.303 202.338 89.6022C202.345 92.0991 202.345 94.597 202.338 97.0961C202.334 97.3781 202.316 97.6595 202.282 97.9382C202.001 100.429 201.013 101.673 198.735 101.719C197.898 101.757 197.061 101.619 196.259 101.313C194.877 100.734 194.263 99.2652 194.23 97.5205C194.164 94.6274 194.208 91.7376 194.208 88.6895Z" fill="black"/>
<path d="M204.234 101.309V88.7566C204.297 88.7145 204.354 88.6404 204.411 88.6421C206.111 88.6876 207.818 88.6303 209.506 88.8324C210.711 88.9756 211.625 89.8816 211.839 91.5117C212.058 93.1957 212.025 94.8326 210.863 96.0586C210.118 96.8417 209.209 96.9478 208.298 97.0033C207.731 97.037 207.163 97.0033 206.472 97.0033V101.308L204.234 101.309ZM206.506 94.4689C207.259 94.4689 207.915 94.4924 208.568 94.4689C209.221 94.4453 209.536 93.8879 209.66 93.1402C209.793 92.3537 209.536 91.5723 208.995 91.3248C208.197 90.9594 207.368 91.0604 206.51 91.2507L206.506 94.4689Z" fill="black"/>
<path d="M223.915 101.331H215.965V96.1194H223.915V101.331Z" fill="black"/>
<path d="M215.959 94.3697V91.6753H223.827V94.3697H215.959Z" fill="black"/>
<path d="M223.946 88.501C223.899 89.0247 223.864 89.4002 223.824 89.8482H215.967V88.501H223.946Z" fill="black"/>
</svg>
