<svg width="533" height="352" viewBox="0 0 533 352" fill="none" xmlns="http://www.w3.org/2000/svg">
<path fill-rule="evenodd" clip-rule="evenodd" d="M281.708 129.346V218.512C281.708 221.431 279.343 226.235 276.468 229.154L229.013 277.192C225.483 280.776 218.605 278.448 218.605 272.462V186.991C218.605 182.261 220.279 176.682 225.447 171.434L271.228 124.838C274.94 121.105 281.708 123.618 281.708 129.346Z" fill="#F93B1D"/>
<path fill-rule="evenodd" clip-rule="evenodd" d="M240.584 54.2162L327.18 54.2533C332.231 53.8454 337.169 55.6625 340.697 59.3337L389.008 107.616C390.234 108.766 391.013 110.397 391.013 112.214C391.013 115.7 388.154 118.556 384.664 118.556H296.916C292.646 118.593 288.784 117.035 285.813 114.476L236.054 64.7849C235.014 63.6354 234.383 62.152 234.383 60.5204C234.383 56.9975 237.205 54.2533 240.584 54.2162Z" fill="#F93B1D"/>
<path fill-rule="evenodd" clip-rule="evenodd" d="M459.749 78.4764L459.677 165.247C460.077 170.307 458.295 175.256 454.694 178.791L407.376 227.199C406.249 228.427 404.649 229.209 402.866 229.209C399.448 229.209 396.647 226.344 396.647 222.846V134.922C396.611 130.643 398.138 126.773 400.648 123.797L449.42 73.9369C450.511 72.8951 452.003 72.2625 453.603 72.2625C457.022 72.2625 459.713 75.0904 459.749 78.4764Z" fill="#F93B1D"/>
<path fill-rule="evenodd" clip-rule="evenodd" d="M293.544 233.726L380.119 233.799C385.168 233.399 390.106 235.183 393.633 238.789L441.97 286.211C443.195 287.34 443.974 288.943 443.974 290.728C443.974 294.151 441.116 296.956 437.626 296.956H349.862C345.593 296.992 341.732 295.463 338.762 292.949L289.014 244.107C287.975 243.014 287.344 241.521 287.344 239.918C287.344 236.458 290.165 233.763 293.544 233.726Z" fill="#F93B1D"/>
<path fill-rule="evenodd" clip-rule="evenodd" d="M193.811 0H157.357C150.73 0 145.357 5.37257 145.357 12V48.5521H146.357V12C146.357 5.92486 151.282 1 157.357 1H193.811V0Z" fill="#212121"/>
<path fill-rule="evenodd" clip-rule="evenodd" d="M484.541 0H521.002C527.629 0 533.002 5.37257 533.002 12V48.5518H532.002V12C532.002 5.92486 527.077 1 521.002 1H484.541V0Z" fill="#212121"/>
<path fill-rule="evenodd" clip-rule="evenodd" d="M484.541 352L521.002 352C527.629 352 533.002 346.627 533.002 340L533.002 303.448L532.002 303.448L532.002 340C532.002 346.075 527.077 351 521.002 351L484.541 351L484.541 352Z" fill="#212121"/>
<path fill-rule="evenodd" clip-rule="evenodd" d="M193.811 352L157.357 352C150.73 352 145.357 346.627 145.357 340L145.357 303.448L146.357 303.448L146.357 340C146.357 346.075 151.282 351 157.357 351L193.811 351L193.811 352Z" fill="#212121"/>
<rect x="0.5" y="109.577" width="35.3406" height="35.4138" rx="5.5" stroke="#212121"/>
<path d="M14.1063 134.084H12.9263V120.084H18.3063C18.9597 120.084 19.573 120.157 20.1463 120.304C20.7197 120.451 21.2597 120.677 21.7663 120.984C22.273 121.291 22.673 121.724 22.9663 122.284C23.273 122.844 23.4263 123.497 23.4263 124.244C23.4263 125.484 23.0397 126.437 22.2663 127.104C21.493 127.771 20.533 128.177 19.3863 128.324L24.3663 134.084H22.8863L18.0063 128.424H14.1063V134.084ZM14.1263 121.224V127.284H18.3863C19.453 127.284 20.3597 127.044 21.1063 126.564C21.853 126.084 22.2263 125.311 22.2263 124.244C22.2263 123.177 21.853 122.411 21.1063 121.944C20.373 121.464 19.4663 121.224 18.3863 121.224H14.1263Z" fill="#212121"/>
<rect x="0.5" y="206.646" width="35.3406" height="35.4138" rx="5.5" stroke="#212121"/>
<path d="M13.5244 231.153H12.1044L17.5644 223.953L12.4044 217.153H13.8244L18.2844 223.013L22.7444 217.153H24.1444L18.9844 223.953L24.4444 231.153H23.0444L18.2844 224.893L13.5244 231.153Z" fill="#212121"/>
<path d="M13.5215 176.141H22.5362" stroke="#212121"/>
</svg>
