<svg width="41" height="40" viewBox="0 0 41 40" fill="none" xmlns="http://www.w3.org/2000/svg">
<circle cx="20.5" cy="20" r="20" fill="white"/>
<path d="M10.0254 19.547C10.0714 19.524 10.1173 19.5022 10.1621 19.4816C10.9406 19.1209 11.7295 18.7832 12.5171 18.4455C12.5596 18.4455 12.6308 18.3961 12.671 18.3801C12.7319 18.3536 12.7927 18.3284 12.8536 18.302C12.9707 18.2514 13.0878 18.202 13.2038 18.1515C13.438 18.0516 13.6711 17.9516 13.9054 17.8517C14.3727 17.6519 14.84 17.452 15.3074 17.251C16.242 16.8513 17.1779 16.4505 18.1125 16.0507C19.0472 15.651 19.983 15.2502 20.9177 14.8505C21.8523 14.4508 22.7881 14.0499 23.7228 13.6502C24.6575 13.2505 25.5933 12.8496 26.528 12.4499C26.7358 12.3604 26.9609 12.2271 27.1836 12.1881C27.3708 12.1548 27.5533 12.0904 27.7417 12.0548C28.0988 11.9871 28.4926 11.9595 28.8348 12.1077C28.953 12.1594 29.0621 12.2317 29.1528 12.3225C29.5869 12.752 29.526 13.4573 29.4342 14.0614C28.7946 18.2721 28.155 22.4839 27.5143 26.6946C27.427 27.2724 27.3076 27.9064 26.8518 28.2716C26.466 28.5806 25.9171 28.6151 25.4406 28.4841C24.9641 28.352 24.5438 28.0752 24.1316 27.803C22.4219 26.6705 20.711 25.538 19.0013 24.4055C18.5948 24.1367 18.1424 23.7853 18.147 23.2971C18.1493 23.0031 18.3249 22.7412 18.5041 22.5081C19.9899 20.5693 22.1337 19.2369 23.7286 17.3877C23.9536 17.127 24.1304 16.656 23.8216 16.5056C23.6379 16.416 23.4266 16.5377 23.2589 16.6538C21.1507 18.1182 19.0437 19.5838 16.9356 21.0482C16.2478 21.526 15.5267 22.0176 14.6977 22.1348C13.9559 22.2404 13.2095 22.0337 12.4919 21.8224C11.8902 21.6455 11.2897 21.464 10.6914 21.2768C10.3734 21.178 10.045 21.0712 9.79924 20.8472C9.55352 20.6232 9.41231 20.2465 9.56043 19.9479C9.65344 19.7607 9.83371 19.6423 10.0232 19.5459L10.0254 19.547Z" fill="#212121"/>
</svg>
