<svg width="41" height="40" viewBox="0 0 41 40" fill="none" xmlns="http://www.w3.org/2000/svg">
<circle cx="20.5" cy="20" r="20" fill="white"/>
<path d="M23.4946 24.1666C19.5652 24.1666 16.3683 20.9676 16.3672 17.037C16.3683 16.0407 17.1793 15.2305 18.1732 15.2305C18.2754 15.2305 18.3765 15.2391 18.4734 15.2563C18.6863 15.2918 18.8886 15.3639 19.0747 15.4726C19.1016 15.4887 19.1198 15.5145 19.1241 15.5446L19.5393 18.1625C19.5447 18.1927 19.535 18.2239 19.5146 18.2465C19.2855 18.5004 18.9929 18.6833 18.667 18.7748L18.5099 18.8189L18.5691 18.9706C19.1048 20.335 20.1955 21.4249 21.5605 21.9629L21.7122 22.0232L21.7563 21.8661C21.8477 21.5401 22.0306 21.2474 22.2845 21.0182C22.3028 21.001 22.3275 20.9924 22.3522 20.9924C22.3576 20.9924 22.363 20.9924 22.3694 20.9935L24.9866 21.4088C25.0178 21.4142 25.0436 21.4314 25.0597 21.4583C25.1673 21.6444 25.2393 21.8478 25.2759 22.0609C25.2931 22.1555 25.3007 22.2556 25.3007 22.36C25.3007 23.3553 24.4907 24.1655 23.4946 24.1666Z" fill="#212121"/>
<path d="M30.4624 18.8124C30.2504 16.4172 29.1533 14.1953 27.373 12.5566C25.582 10.9081 23.2586 10 20.8286 10C15.4954 10 11.1562 14.3405 11.1562 19.6753C11.1562 21.4658 11.6499 23.2099 12.5847 24.7292L10.5 29.3452L17.1746 28.634C18.3352 29.1096 19.5636 29.3506 20.8275 29.3506C21.1599 29.3506 21.5009 29.3334 21.843 29.2979C22.1442 29.2656 22.4486 29.2183 22.7476 29.158C27.2138 28.2553 30.4742 24.2902 30.5 19.727V19.6753C30.5 19.3848 30.4871 19.0943 30.4613 18.8134L30.4624 18.8124ZM17.4316 26.6079L13.7389 27.0017L14.8414 24.5582L14.6209 24.2623C14.6048 24.2407 14.5886 24.2192 14.5704 24.1945C13.613 22.8721 13.1074 21.3097 13.1074 19.6764C13.1074 15.4176 16.5711 11.9529 20.8286 11.9529C24.8172 11.9529 28.1981 15.0658 28.524 19.0394C28.5412 19.2524 28.5509 19.4666 28.5509 19.6775C28.5509 19.7377 28.5498 19.7969 28.5487 19.8604C28.467 23.423 25.9789 26.4487 22.4981 27.2191C22.2324 27.2783 21.9602 27.3234 21.6892 27.3525C21.4073 27.3848 21.118 27.4009 20.8308 27.4009C19.8078 27.4009 18.8139 27.2029 17.8748 26.8113C17.7705 26.7693 17.6683 26.7241 17.5726 26.6778L17.4327 26.6101L17.4316 26.6079Z" fill="#212121"/>
</svg>
