<svg width="302" height="93" viewBox="0 0 302 93" fill="none" xmlns="http://www.w3.org/2000/svg">
<path fill-rule="evenodd" clip-rule="evenodd" d="M81.166 0.00411053L49.2972 0.0208157C47.4383 -0.129531 45.6297 0.538677 44.3235 1.8918L26.5386 19.6494C26.0865 20.067 25.8018 20.6851 25.8018 21.3533C25.8018 22.6396 26.84 23.6754 28.1463 23.6754H60.4504C62.0246 23.6921 63.4481 23.1074 64.5366 22.1719L82.8406 3.87972C83.2258 3.46209 83.4602 2.91081 83.4602 2.30943C83.4602 1.02313 82.422 0.0208157 81.166 0.00411053Z" fill="#F93B1D"/>
<path fill-rule="evenodd" clip-rule="evenodd" d="M24.2135 27.501L24.1968 59.291C24.3475 61.1453 23.6776 62.9494 22.3211 64.2524L4.53628 82.0101C4.11761 82.4611 3.51473 82.7451 2.82812 82.7451C1.53864 82.7451 0.50035 81.6927 0.50035 80.4064V48.182C0.483603 46.6118 1.06973 45.1918 2.00754 44.106L20.3283 25.8305C20.747 25.4463 21.2996 25.2124 21.9025 25.2124C23.192 25.2291 24.1968 26.2648 24.2135 27.501Z" fill="#F93B1D"/>
<path fill-rule="evenodd" clip-rule="evenodd" d="M90.2106 8.92474L90.1938 40.7147C90.3446 42.569 89.6747 44.3732 88.3182 45.6762L70.5333 63.4338C70.1147 63.8848 69.5118 64.1688 68.8252 64.1688C67.5357 64.1688 66.4974 63.1331 66.4974 61.8301V29.6225C66.4807 28.0522 67.0668 26.6322 68.0046 25.5464L86.3254 7.27092C86.744 6.8867 87.2967 6.65283 87.8995 6.65283C89.189 6.65283 90.1938 7.68855 90.2106 8.92474Z" fill="#F93B1D"/>
<path fill-rule="evenodd" clip-rule="evenodd" d="M28.6174 65.8391L60.4861 65.8558C62.345 65.7054 64.1536 66.3736 65.4599 67.7268L83.2447 85.4677C83.6969 85.8853 83.9816 86.4867 83.9816 87.1716C83.9816 88.4579 82.9433 89.4936 81.6538 89.4936H49.3664C47.7922 89.5103 46.3688 88.9257 45.2802 87.9902L26.9595 69.7147C26.5743 69.297 26.3398 68.7458 26.3398 68.1444C26.3398 66.8581 27.3781 65.8558 28.6174 65.8391Z" fill="#F93B1D"/>
<path d="M113.981 68.5455H105.792V44.6069H126.893C134.462 44.6069 138.247 46.6784 138.247 50.8213V51.2055C138.247 53.728 136.622 55.482 133.39 56.4509C134.864 56.8351 136.07 57.4866 136.974 58.4054C137.895 59.3242 138.347 60.5103 138.347 61.9636V65.4717C138.347 66.9084 138.347 68.5622 138.347 68.5622H130.108C130.108 68.5622 130.108 67.7603 130.108 67.042V64.2689C130.108 62.7822 129.689 61.7131 128.869 61.0448C128.048 60.3766 126.641 60.0425 124.649 60.0425H113.964V68.5455H113.981ZM113.981 54.747H126.39C127.512 54.747 128.35 54.5298 128.886 54.0955C129.421 53.6611 129.689 53.0932 129.689 52.3916V52.3581C129.689 51.6732 129.421 51.122 128.886 50.6876C128.35 50.2533 127.512 50.0361 126.39 50.0361H113.981V54.747Z" fill="#F93B1D"/>
<path d="M169.645 44.5234V49.9693H150.136V53.5108H169.21V58.9901H150.136V62.9159H170.014V68.4954H142.03V44.5234H169.645Z" fill="#F93B1D"/>
<path d="M173.647 44.6069H185.286L194.329 59.508L203.406 44.6069H214.626V68.5455H206.538V51.9739L196.239 68.5455H191.851L181.552 51.9739V68.5455H173.681V44.6069H173.647Z" fill="#F93B1D"/>
<path d="M226.92 68.512H218.748V44.6235H226.92V68.512Z" fill="#F93B1D"/>
<path d="M240.169 44.6069L256.865 59.6583V44.6069H264.954V68.5455H256.865L239.114 52.6922V68.5455H231.025V44.6069H240.169Z" fill="#F93B1D"/>
<path d="M276.693 68.3617C274.751 67.9607 273.244 67.4596 272.189 66.8749C271.134 66.2902 270.296 65.5886 269.677 64.77C269.057 63.9515 268.655 63.1998 268.488 62.5316C268.303 61.8633 268.22 61.1617 268.22 60.41V60.0592H276.76C276.945 62.5984 278.787 63.8513 283.777 63.8513H285.686C287.328 63.8513 288.014 63.7844 289.103 63.6341C290.191 63.5005 290.962 63.3 291.464 63.0327C291.95 62.7821 292.285 62.5148 292.452 62.2476C292.619 61.9803 292.703 61.6629 292.703 61.2954C292.703 60.7775 292.569 60.3766 292.285 60.0759C292 59.7752 291.347 59.5079 290.308 59.2907C289.27 59.0736 287.78 58.9399 285.837 58.8898L283.258 58.8397L281.332 58.8063C272.825 58.5891 268.571 56.2504 268.571 51.7901V51.5061C268.571 50.7377 268.672 50.0194 268.89 49.3679C269.107 48.7164 269.526 48.0649 270.162 47.4133C270.799 46.7618 271.619 46.2106 272.641 45.7595C273.662 45.3085 275.036 44.941 276.777 44.657C278.519 44.373 280.528 44.2227 282.823 44.2227H285.251C287.646 44.2227 289.756 44.373 291.581 44.6737C293.407 44.9744 294.864 45.3586 295.952 45.8264C297.041 46.2941 297.928 46.8788 298.632 47.5637C299.318 48.2486 299.804 48.9335 300.055 49.6017C300.306 50.2866 300.44 51.005 300.44 51.7734V52.0908H291.933C291.883 51.8235 291.816 51.6064 291.732 51.4226C291.648 51.2388 291.447 51.005 291.146 50.7043C290.844 50.4036 290.442 50.153 289.957 49.9692C289.454 49.7688 288.734 49.6017 287.763 49.4514C286.792 49.301 286.038 49.2342 284.749 49.2342H283.526C281.55 49.2342 280.311 49.3512 279.272 49.5683C278.217 49.8022 277.581 50.0361 277.347 50.2699C277.129 50.5205 277.012 50.8546 277.012 51.289C277.012 51.6899 277.129 52.024 277.38 52.2913C277.631 52.5418 278.217 52.7924 279.139 52.9929C280.06 53.2101 281.366 53.327 283.057 53.3437L284.983 53.3771L287.445 53.4105C292.318 53.494 295.852 54.0954 298.012 55.2314C300.172 56.3506 301.261 58.1214 301.261 60.5269V60.978C301.261 61.8633 301.16 62.6485 300.943 63.3334C300.725 64.035 300.289 64.7533 299.636 65.4717C298.983 66.2067 298.112 66.8081 297.024 67.3092C295.935 67.8104 294.445 68.2113 292.553 68.512C290.66 68.8294 288.45 68.9798 285.921 68.9798H283.493C280.914 68.9631 278.636 68.7626 276.693 68.3617Z" fill="#F93B1D"/>
<path d="M106.981 89.4772H105.792V79.5376H109.694C110.347 79.5376 110.95 79.6211 111.469 79.8049C112.005 79.9886 112.457 80.306 112.842 80.7738C113.227 81.2415 113.412 81.8429 113.412 82.5612C113.412 83.4132 113.16 84.0814 112.675 84.5492C112.189 85.0169 111.536 85.3343 110.749 85.4679L114.115 89.4939H112.625L109.359 85.5682H106.964V89.4772H106.981ZM106.981 80.6736V84.4155H109.744C110.448 84.4155 111.034 84.2652 111.503 83.9812C111.971 83.6972 112.206 83.2127 112.206 82.5445C112.206 81.8596 111.971 81.3752 111.503 81.0912C111.034 80.8072 110.448 80.6736 109.744 80.6736H106.981Z" fill="#F93B1D"/>
<path d="M114.566 86.0691C114.566 84.9498 114.918 84.0811 115.605 83.4463C116.291 82.8115 117.078 82.4941 117.983 82.4941C118.82 82.4941 119.507 82.6946 120.059 83.1122C120.612 83.5299 120.964 84.0477 121.131 84.6491C121.299 85.2672 121.315 85.902 121.165 86.5535H115.722C115.789 87.2217 116.09 87.7396 116.626 88.0737C117.162 88.4078 117.798 88.5915 118.552 88.5915C119.389 88.5915 120.143 88.4078 120.796 88.0403V89.1428C120.16 89.4769 119.356 89.644 118.368 89.644C117.279 89.644 116.392 89.3433 115.672 88.7252C114.952 88.1071 114.566 87.2217 114.566 86.0691ZM120.143 85.5679C120.177 85.3674 120.16 85.167 120.093 84.9498C120.043 84.7326 119.942 84.5155 119.791 84.2983C119.641 84.0811 119.423 83.8974 119.121 83.7637C118.82 83.6301 118.468 83.5466 118.05 83.5466C117.43 83.5466 116.894 83.7303 116.442 84.0811C115.99 84.4486 115.739 84.9331 115.705 85.5679H120.143Z" fill="#F93B1D"/>
<path d="M122.454 84.4486C122.454 83.7971 122.705 83.3127 123.208 82.9786C123.71 82.6445 124.33 82.4941 125.05 82.4941C125.938 82.4941 126.741 82.6946 127.478 83.0788V84.1647C127.194 83.9809 126.825 83.8138 126.39 83.6969C125.954 83.58 125.536 83.5132 125.117 83.5132C124.698 83.5132 124.347 83.58 124.045 83.7303C123.744 83.8807 123.593 84.1145 123.593 84.4152C123.593 84.6491 123.694 84.8329 123.911 84.9999C124.129 85.167 124.397 85.2839 124.715 85.3674C125.033 85.451 125.385 85.5679 125.753 85.6848C126.122 85.8185 126.473 85.9521 126.792 86.0858C127.11 86.2194 127.378 86.4366 127.595 86.7039C127.813 86.9878 127.914 87.3219 127.914 87.7062C127.914 88.3744 127.646 88.8588 127.11 89.1595C126.574 89.4602 125.904 89.6273 125.083 89.6273C124.012 89.6273 123.124 89.4101 122.438 88.959V87.8732C123.158 88.3577 124.028 88.5915 125.033 88.5915C126.189 88.5915 126.775 88.3075 126.775 87.7563C126.775 87.5057 126.624 87.2885 126.323 87.1048C126.021 86.921 125.653 86.7874 125.234 86.6704C124.799 86.5535 124.38 86.4199 123.945 86.2695C123.509 86.1192 123.158 85.8853 122.856 85.5846C122.588 85.2839 122.454 84.8997 122.454 84.4486Z" fill="#F93B1D"/>
<path d="M130.091 88.6918C129.371 88.057 129.003 87.1716 129.003 86.0691C129.003 84.9665 129.371 84.0811 130.091 83.4463C130.812 82.8115 131.666 82.4941 132.654 82.4941C133.658 82.4941 134.513 82.8115 135.216 83.4463C135.919 84.0811 136.288 84.9665 136.288 86.0691C136.288 87.1716 135.936 88.057 135.216 88.6918C134.496 89.3266 133.642 89.644 132.654 89.644C131.666 89.644 130.812 89.3266 130.091 88.6918ZM134.446 87.8899C134.914 87.4389 135.149 86.8375 135.149 86.0691C135.149 85.3006 134.914 84.6992 134.446 84.2482C133.977 83.7971 133.374 83.58 132.654 83.58C131.934 83.58 131.331 83.7971 130.862 84.2482C130.393 84.6992 130.142 85.3006 130.142 86.0691C130.142 86.8375 130.376 87.4389 130.862 87.8899C131.331 88.341 131.934 88.5581 132.654 88.5581C133.374 88.5581 133.977 88.341 134.446 87.8899Z" fill="#F93B1D"/>
<path d="M143.036 82.6611H144.175V89.4769H143.154V88.4745C142.902 88.8086 142.567 89.0926 142.115 89.3098C141.68 89.5437 141.194 89.6439 140.692 89.6439C139.804 89.6439 139.118 89.3933 138.598 88.8922C138.096 88.391 137.828 87.7061 137.828 86.8708V82.6611H138.967V86.7205C138.967 87.9734 139.587 88.5915 140.809 88.5915C141.68 88.5915 142.417 88.1404 143.036 87.2217V82.6611Z" fill="#F93B1D"/>
<path d="M147.307 83.8636C147.575 83.4126 147.977 83.0784 148.529 82.8279C149.082 82.5773 149.651 82.4771 150.254 82.5272V83.6631C149.584 83.5963 148.998 83.6965 148.496 83.9805C147.993 84.2645 147.625 84.6821 147.424 85.2334V89.4765H146.285V82.6608H147.307V83.8636Z" fill="#F93B1D"/>
<path d="M150.771 86.1025C150.771 85.5011 150.889 84.9665 151.106 84.4988C151.324 84.031 151.609 83.6468 151.96 83.3628C152.312 83.0788 152.714 82.8617 153.149 82.7113C153.585 82.561 154.02 82.4941 154.472 82.4941C155.31 82.4941 156.013 82.6779 156.583 83.0454V84.148C156.063 83.747 155.41 83.5299 154.623 83.5299C153.886 83.5299 153.25 83.747 152.714 84.1647C152.178 84.599 151.91 85.2171 151.91 86.0523C151.91 86.8709 152.178 87.5057 152.697 87.94C153.216 88.3744 153.853 88.5915 154.59 88.5915C155.343 88.5915 156.03 88.4078 156.65 88.0403V89.1762C155.996 89.4936 155.26 89.644 154.422 89.644C153.434 89.644 152.58 89.3433 151.86 88.7252C151.14 88.1071 150.771 87.2384 150.771 86.1025Z" fill="#F93B1D"/>
<path d="M157.709 86.0691C157.709 84.9498 158.061 84.0811 158.747 83.4463C159.434 82.8115 160.221 82.4941 161.125 82.4941C161.963 82.4941 162.649 82.6946 163.202 83.1122C163.754 83.5299 164.106 84.0477 164.274 84.6491C164.441 85.2672 164.458 85.902 164.307 86.5535H158.864C158.931 87.2217 159.233 87.7396 159.769 88.0737C160.305 88.4078 160.941 88.5915 161.695 88.5915C162.532 88.5915 163.286 88.4078 163.939 88.0403V89.1428C163.302 89.4769 162.499 89.644 161.51 89.644C160.422 89.644 159.534 89.3433 158.798 88.7252C158.061 88.1071 157.709 87.2217 157.709 86.0691ZM163.269 85.5679C163.302 85.3674 163.286 85.167 163.219 84.9498C163.168 84.7326 163.068 84.5155 162.917 84.2983C162.766 84.0811 162.549 83.8974 162.247 83.7637C161.946 83.6301 161.594 83.5466 161.176 83.5466C160.556 83.5466 160.02 83.7303 159.568 84.0811C159.116 84.4486 158.864 84.9331 158.831 85.5679H163.269Z" fill="#F93B1D"/>
<path d="M179.024 79.5376H180.046V89.4772H178.857V81.7928L175.29 87.1385H174.553L170.986 81.7928V89.4772H169.797V79.5376H170.818L174.938 85.6684L179.024 79.5376Z" fill="#F93B1D"/>
<path d="M183.548 79.9549C183.682 80.0885 183.766 80.2555 183.766 80.4894C183.766 80.7233 183.699 80.8903 183.548 81.024C183.414 81.1576 183.23 81.2077 183.029 81.2077C182.828 81.2077 182.644 81.1409 182.51 81.024C182.376 80.8903 182.292 80.7233 182.292 80.4894C182.292 80.2555 182.359 80.0885 182.51 79.9549C182.66 79.8212 182.828 79.7544 183.029 79.7544C183.23 79.7711 183.397 79.8379 183.548 79.9549ZM183.581 89.4768H182.443V82.6611H183.581V89.4768Z" fill="#F93B1D"/>
<path d="M186.746 83.6635C186.997 83.3294 187.332 83.0454 187.784 82.8282C188.22 82.5944 188.706 82.4941 189.208 82.4941C190.028 82.4941 190.715 82.7447 191.251 83.2626C191.787 83.7804 192.055 84.4486 192.055 85.2672V89.4769H190.916V85.4175C190.916 84.7995 190.749 84.3317 190.414 84.0143C190.079 83.6969 189.627 83.5466 189.091 83.5466C188.22 83.5466 187.483 83.9976 186.863 84.9164V89.4936H185.725V82.6779H186.746V83.6635Z" fill="#F93B1D"/>
<path d="M195.205 79.9549C195.339 80.0885 195.423 80.2555 195.423 80.4894C195.423 80.7233 195.356 80.8903 195.205 81.024C195.071 81.1576 194.887 81.2077 194.686 81.2077C194.485 81.2077 194.301 81.1409 194.167 81.024C194.033 80.8903 193.949 80.7233 193.949 80.4894C193.949 80.2555 194.016 80.0885 194.167 79.9549C194.318 79.8212 194.485 79.7544 194.686 79.7544C194.887 79.7711 195.054 79.8379 195.205 79.9549ZM195.239 89.4768H194.1V82.6611H195.239V89.4768Z" fill="#F93B1D"/>
<path d="M198.401 83.6635C198.653 83.3294 198.988 83.0454 199.44 82.8282C199.875 82.5944 200.361 82.4941 200.863 82.4941C201.684 82.4941 202.37 82.7447 202.906 83.2626C203.442 83.7804 203.71 84.4486 203.71 85.2672V89.4769H202.571V85.4175C202.571 84.7995 202.404 84.3317 202.069 84.0143C201.734 83.6969 201.282 83.5466 200.746 83.5466C199.875 83.5466 199.138 83.9976 198.519 84.9164V89.4936H197.38V82.6779H198.401V83.6635Z" fill="#F93B1D"/>
<path d="M206.234 88.6249C205.581 87.94 205.263 87.0881 205.263 86.0691C205.263 85.05 205.581 84.1981 206.234 83.5132C206.887 82.8282 207.691 82.4941 208.679 82.4941C209.751 82.4941 210.672 82.9285 211.442 83.7971V82.6612H212.464V89.4769C212.464 90.5795 212.095 91.398 211.375 91.9493C210.655 92.5006 209.768 92.7678 208.729 92.7678C207.708 92.7678 206.787 92.5507 205.949 92.133V91.0305C206.77 91.4982 207.657 91.7321 208.579 91.7321C209.382 91.7321 210.052 91.5484 210.555 91.1975C211.074 90.8467 211.325 90.2788 211.308 89.4936V88.4412C210.638 89.2597 209.768 89.6607 208.662 89.6607C207.691 89.644 206.887 89.3099 206.234 88.6249ZM211.325 85.2171C211.124 84.7493 210.789 84.3484 210.337 84.031C209.885 83.7136 209.382 83.5466 208.796 83.5466C208.11 83.5466 207.54 83.7804 207.088 84.2482C206.636 84.7159 206.401 85.3173 206.401 86.0858C206.401 86.8542 206.636 87.4556 207.088 87.9233C207.557 88.3911 208.126 88.6249 208.796 88.6249C209.382 88.6249 209.885 88.4746 210.337 88.1739C210.789 87.8732 211.107 87.5057 211.325 87.0881V85.2171Z" fill="#F93B1D"/>
<path d="M217.776 81.9928C217.776 81.1576 218.11 80.5061 218.764 80.055C219.417 79.604 220.237 79.3701 221.192 79.3701C222.364 79.3701 223.369 79.604 224.206 80.0884V81.2745C223.369 80.7399 222.398 80.4727 221.276 80.4894C219.752 80.4894 218.981 80.9738 218.981 81.9427C218.981 82.3269 219.132 82.661 219.417 82.9283C219.718 83.2123 220.07 83.4128 220.505 83.5464C220.941 83.6801 221.41 83.8471 221.929 84.0309C222.448 84.2146 222.917 84.3984 223.352 84.5988C223.788 84.7993 224.156 85.0833 224.441 85.4842C224.742 85.8851 224.876 86.3529 224.876 86.9209C224.876 87.3886 224.776 87.8062 224.575 88.1738C224.374 88.5246 224.089 88.8086 223.737 89.0257C223.386 89.2262 223 89.3765 222.565 89.4768C222.13 89.577 221.678 89.6104 221.175 89.6104C219.919 89.6104 218.78 89.3264 217.759 88.7584V87.5724C218.764 88.1738 219.869 88.4744 221.091 88.4744C222.8 88.4744 223.654 87.99 223.654 87.0044C223.654 86.6369 223.536 86.3362 223.319 86.0689C223.101 85.8016 222.816 85.6012 222.465 85.4341C222.113 85.2671 221.728 85.1334 221.309 84.9998C220.89 84.8661 220.472 84.7158 220.053 84.5654C219.634 84.4151 219.249 84.2313 218.898 84.0309C218.546 83.8304 218.261 83.5464 218.043 83.1956C217.876 82.8782 217.776 82.4606 217.776 81.9928Z" fill="#F93B1D"/>
<path d="M227.049 88.6918C226.329 88.057 225.961 87.1716 225.961 86.0691C225.961 84.9665 226.313 84.0811 227.049 83.4463C227.786 82.8115 228.624 82.4941 229.612 82.4941C230.6 82.4941 231.471 82.8115 232.174 83.4463C232.877 84.0811 233.246 84.9665 233.246 86.0691C233.246 87.1716 232.894 88.057 232.174 88.6918C231.454 89.3266 230.6 89.644 229.612 89.644C228.624 89.644 227.77 89.3266 227.049 88.6918ZM231.404 87.8899C231.872 87.4389 232.107 86.8375 232.107 86.0691C232.107 85.3006 231.872 84.6992 231.404 84.2482C230.935 83.7971 230.332 83.58 229.612 83.58C228.892 83.58 228.289 83.7971 227.82 84.2482C227.351 84.6992 227.116 85.3006 227.116 86.0691C227.116 86.8375 227.351 87.4389 227.82 87.8899C228.289 88.341 228.892 88.5581 229.612 88.5581C230.332 88.5581 230.935 88.341 231.404 87.8899Z" fill="#F93B1D"/>
<path d="M234.925 79.1196H236.064V89.4936H234.925V79.1196Z" fill="#F93B1D"/>
<path d="M243.309 82.6611H244.448V89.4769H243.426V88.4745C243.175 88.8086 242.84 89.0926 242.388 89.3098C241.952 89.5437 241.467 89.6439 240.964 89.6439C240.077 89.6439 239.39 89.3933 238.871 88.8922C238.369 88.391 238.101 87.7061 238.101 86.8708V82.6611H239.239V86.7205C239.239 87.9734 239.859 88.5915 241.081 88.5915C241.952 88.5915 242.689 88.1404 243.309 87.2217V82.6611Z" fill="#F93B1D"/>
<path d="M247.017 80.5398L248.139 80.2559V82.6614H250.869V83.7138H248.139V87.2386C248.139 87.7398 248.256 88.0906 248.491 88.2911C248.725 88.4915 249.094 88.5917 249.613 88.5917C250.099 88.5917 250.601 88.4915 251.12 88.2744V89.3268C250.534 89.5272 249.931 89.6442 249.278 89.6442C248.591 89.6442 248.039 89.4604 247.62 89.0762C247.218 88.7087 247 88.1574 247 87.4391V83.7138H245.711V82.6614H247V80.5398H247.017Z" fill="#F93B1D"/>
<path d="M253.511 79.9549C253.645 80.0885 253.729 80.2555 253.729 80.4894C253.729 80.7233 253.662 80.8903 253.511 81.024C253.377 81.1576 253.193 81.2077 252.992 81.2077C252.791 81.2077 252.607 81.1409 252.473 81.024C252.339 80.8903 252.255 80.7233 252.255 80.4894C252.255 80.2555 252.322 80.0885 252.473 79.9549C252.623 79.8212 252.791 79.7544 252.992 79.7544C253.193 79.7711 253.377 79.8379 253.511 79.9549ZM253.561 89.4768H252.422V82.6611H253.561V89.4768Z" fill="#F93B1D"/>
<path d="M256.311 88.6918C255.591 88.057 255.223 87.1716 255.223 86.0691C255.223 84.9665 255.574 84.0811 256.311 83.4463C257.048 82.8115 257.885 82.4941 258.873 82.4941C259.861 82.4941 260.732 82.8115 261.436 83.4463C262.139 84.0811 262.507 84.9665 262.507 86.0691C262.507 87.1716 262.156 88.057 261.436 88.6918C260.716 89.3266 259.861 89.644 258.873 89.644C257.885 89.644 257.031 89.3266 256.311 88.6918ZM260.665 87.8899C261.134 87.4389 261.369 86.8375 261.369 86.0691C261.369 85.3006 261.134 84.6992 260.665 84.2482C260.196 83.7971 259.594 83.58 258.873 83.58C258.153 83.58 257.55 83.7971 257.082 84.2482C256.613 84.6992 256.378 85.3006 256.378 86.0691C256.378 86.8375 256.613 87.4389 257.082 87.8899C257.55 88.341 258.153 88.5581 258.873 88.5581C259.594 88.5581 260.196 88.341 260.665 87.8899Z" fill="#F93B1D"/>
<path d="M265.17 83.6635C265.421 83.3294 265.756 83.0454 266.208 82.8282C266.644 82.5944 267.129 82.4941 267.632 82.4941C268.452 82.4941 269.139 82.7447 269.675 83.2626C270.211 83.7804 270.479 84.4486 270.479 85.2672V89.4769H269.34V85.4175C269.34 84.7995 269.172 84.3317 268.837 84.0143C268.503 83.6969 268.05 83.5466 267.515 83.5466C266.644 83.5466 265.907 83.9976 265.287 84.9164V89.4936H264.148V82.6779H265.17V83.6635Z" fill="#F93B1D"/>
</svg>
