<svg width="192" height="59" viewBox="0 0 192 59" fill="none" xmlns="http://www.w3.org/2000/svg">
<path fill-rule="evenodd" clip-rule="evenodd" d="M51.8069 0.00310254L31.5386 0.0137269C30.3564 -0.0818923 29.2061 0.343082 28.3754 1.20365L17.0643 12.4973C16.7768 12.7629 16.5957 13.156 16.5957 13.581C16.5957 14.3991 17.256 15.0578 18.0868 15.0578H38.632C39.6331 15.0684 40.5385 14.6966 41.2307 14.1016L52.8719 2.46795C53.1169 2.20234 53.266 1.85174 53.266 1.46926C53.266 0.651188 52.6057 0.0137269 51.8069 0.00310254Z" fill="white"/>
<path fill-rule="evenodd" clip-rule="evenodd" d="M15.5816 17.4902L15.5709 37.7083C15.6668 38.8876 15.2408 40.0351 14.3781 40.8638L3.06704 52.1575C2.80077 52.4443 2.41735 52.6249 1.98067 52.6249C1.16057 52.6249 0.500222 51.9556 0.500222 51.1375V30.6432C0.489572 29.6445 0.862346 28.7414 1.45878 28.0508L13.1106 16.4278C13.3769 16.1834 13.7284 16.0347 14.1118 16.0347C14.9319 16.0453 15.5709 16.704 15.5816 17.4902Z" fill="white"/>
<path fill-rule="evenodd" clip-rule="evenodd" d="M57.5562 5.67611L57.5456 25.8942C57.6414 27.0736 57.2154 28.221 56.3527 29.0497L45.0416 40.3434C44.7754 40.6302 44.392 40.8108 43.9553 40.8108C43.1352 40.8108 42.4748 40.1521 42.4748 39.3234V18.8397C42.4642 17.841 42.837 16.9379 43.4334 16.2473L55.0852 4.6243C55.3515 4.37994 55.703 4.2312 56.0864 4.2312C56.9065 4.2312 57.5456 4.88991 57.5562 5.67611Z" fill="white"/>
<path fill-rule="evenodd" clip-rule="evenodd" d="M18.3821 41.873L38.6503 41.8836C39.8326 41.788 40.9828 42.213 41.8136 43.0735L53.1246 54.3566C53.4122 54.6222 53.5933 55.0047 53.5933 55.4403C53.5933 56.2583 52.9329 56.9171 52.1128 56.9171H31.5783C30.5771 56.9277 29.6718 56.5558 28.9795 55.9609L17.3277 44.3378C17.0827 44.0722 16.9336 43.7216 16.9336 43.3391C16.9336 42.5211 17.5939 41.8836 18.3821 41.873Z" fill="white"/>
<path d="M72.673 43.5951H67.4648V28.3704H80.8847C85.6988 28.3704 88.1059 29.6878 88.1059 32.3226V32.567C88.1059 34.1713 87.0728 35.2868 85.0172 35.903C85.9544 36.1474 86.7213 36.5617 87.2964 37.1461C87.8822 37.7304 88.1698 38.4847 88.1698 39.4091V41.6402C88.1698 42.5539 88.1698 43.6057 88.1698 43.6057H82.9296C82.9296 43.6057 82.9296 43.0957 82.9296 42.6389V40.8752C82.9296 39.9297 82.6634 39.2497 82.1415 38.8247C81.6196 38.3997 80.7249 38.1873 79.4575 38.1873H72.6624V43.5951H72.673ZM72.673 34.8193H80.5652C81.2788 34.8193 81.8113 34.6812 82.1521 34.405C82.493 34.1288 82.6634 33.7675 82.6634 33.3213V33.3001C82.6634 32.8645 82.493 32.5139 82.1521 32.2376C81.8113 31.9614 81.2788 31.8233 80.5652 31.8233H72.673V34.8193Z" fill="white"/>
<path d="M108.075 28.3169V31.7804H95.6666V34.0328H107.798V37.5176H95.6666V40.0143H108.309V43.5628H90.5117V28.3169H108.075Z" fill="white"/>
<path d="M110.622 28.3704H118.024L123.776 37.8473L129.548 28.3704H136.684V43.5951H131.54V33.0557L124.99 43.5951H122.199L115.649 33.0557V43.5951H110.643V28.3704H110.622Z" fill="white"/>
<path d="M144.501 43.5734H139.304V28.3806H144.501V43.5734Z" fill="white"/>
<path d="M152.926 28.3704L163.544 37.9429V28.3704H168.689V43.5951H163.544L152.255 33.5125V43.5951H147.11V28.3704H152.926Z" fill="white"/>
<path d="M176.156 43.4777C174.92 43.2227 173.962 42.904 173.291 42.5321C172.62 42.1603 172.087 41.714 171.693 41.1934C171.299 40.6728 171.044 40.1947 170.937 39.7698C170.82 39.3448 170.767 38.8986 170.767 38.4205V38.1974H176.198C176.316 39.8123 177.487 40.6091 180.661 40.6091H181.875C182.919 40.6091 183.356 40.5666 184.048 40.471C184.74 40.386 185.23 40.2585 185.55 40.0885C185.859 39.9291 186.072 39.7591 186.178 39.5892C186.285 39.4192 186.338 39.2173 186.338 38.9836C186.338 38.6542 186.253 38.3992 186.072 38.208C185.891 38.0168 185.475 37.8468 184.815 37.7087C184.155 37.5705 183.207 37.4855 181.971 37.4537L180.331 37.4218L179.106 37.4005C173.696 37.2624 170.99 35.775 170.99 32.9383V32.7577C170.99 32.269 171.054 31.8121 171.193 31.3978C171.331 30.9834 171.597 30.5691 172.002 30.1547C172.407 29.7404 172.929 29.3898 173.578 29.1029C174.228 28.8161 175.101 28.5823 176.209 28.4017C177.317 28.2211 178.595 28.1255 180.054 28.1255H181.598C183.121 28.1255 184.463 28.2211 185.624 28.4123C186.785 28.6036 187.712 28.8479 188.404 29.1454C189.096 29.4429 189.661 29.8148 190.108 30.2504C190.545 30.686 190.854 31.1216 191.014 31.5465C191.173 31.9821 191.259 32.439 191.259 32.9277V33.1296H185.848C185.816 32.9596 185.773 32.8215 185.72 32.7046C185.667 32.5877 185.539 32.439 185.347 32.2477C185.156 32.0565 184.9 31.8971 184.591 31.7803C184.272 31.6528 183.814 31.5465 183.196 31.4509C182.578 31.3553 182.099 31.3128 181.279 31.3128H180.501C179.245 31.3128 178.456 31.3872 177.796 31.5253C177.125 31.674 176.72 31.8228 176.571 31.9715C176.433 32.1309 176.358 32.3434 176.358 32.6196C176.358 32.8746 176.433 33.0871 176.593 33.257C176.752 33.4164 177.125 33.5758 177.711 33.7033C178.297 33.8414 179.127 33.9158 180.203 33.9264L181.428 33.9476L182.994 33.9689C186.093 34.022 188.34 34.4045 189.714 35.1269C191.088 35.8388 191.78 36.9649 191.78 38.4949V38.7817C191.78 39.3448 191.716 39.8441 191.578 40.2797C191.44 40.726 191.163 41.1828 190.747 41.6397C190.332 42.1071 189.778 42.4896 189.086 42.8083C188.393 43.1271 187.446 43.3821 186.242 43.5733C185.039 43.7752 183.633 43.8708 182.024 43.8708H180.48C178.84 43.8602 177.391 43.7327 176.156 43.4777Z" fill="white"/>
<path d="M68.221 56.9072H67.4648V50.5857H69.9465C70.3618 50.5857 70.7453 50.6388 71.0754 50.7557C71.4163 50.8726 71.7038 51.0744 71.9488 51.3719C72.1938 51.6694 72.3109 52.0519 72.3109 52.5087C72.3109 53.0505 72.1512 53.4755 71.8423 53.773C71.5334 54.0705 71.118 54.2723 70.6175 54.3573L72.7582 56.9178H71.8103L69.7334 54.4211H68.2104V56.9072H68.221ZM68.221 51.3081V53.688H69.9784C70.4257 53.688 70.7985 53.5924 71.0967 53.4118C71.3949 53.2312 71.5441 52.923 71.5441 52.4981C71.5441 52.0625 71.3949 51.7544 71.0967 51.5738C70.7985 51.3931 70.4257 51.3081 69.9784 51.3081H68.221Z" fill="white"/>
<path d="M73.0439 54.7397C73.0439 54.0278 73.2676 53.4754 73.7043 53.0717C74.141 52.6679 74.6415 52.4661 75.2167 52.4661C75.7492 52.4661 76.1859 52.5936 76.5374 52.8592C76.8888 53.1248 77.1125 53.4541 77.219 53.8366C77.3255 54.2297 77.3362 54.6334 77.2403 55.0478H73.7788C73.8214 55.4728 74.0132 55.8021 74.354 56.0146C74.6948 56.2271 75.0995 56.3439 75.5788 56.3439C76.1113 56.3439 76.5906 56.2271 77.006 55.9933V56.6946C76.6013 56.907 76.09 57.0133 75.4616 57.0133C74.7694 57.0133 74.2049 56.822 73.7469 56.4289C73.2889 56.0358 73.0439 55.4728 73.0439 54.7397ZM76.5906 54.4209C76.6119 54.2935 76.6013 54.166 76.5587 54.0278C76.5267 53.8897 76.4628 53.7516 76.367 53.6135C76.2711 53.4754 76.1326 53.3585 75.9409 53.2735C75.7492 53.1885 75.5256 53.1354 75.2593 53.1354C74.8652 53.1354 74.5244 53.2523 74.2368 53.4754C73.9493 53.7091 73.7895 54.0172 73.7682 54.4209H76.5906Z" fill="white"/>
<path d="M78.0624 53.7091C78.0624 53.2948 78.2222 52.9867 78.5417 52.7742C78.8612 52.5617 79.2553 52.4661 79.7133 52.4661C80.2778 52.4661 80.789 52.5936 81.2576 52.8379V53.5285C81.0766 53.4116 80.8422 53.3054 80.5653 53.231C80.2884 53.1566 80.0221 53.1142 79.7559 53.1142C79.4896 53.1142 79.2659 53.1566 79.0742 53.2523C78.8825 53.3479 78.7867 53.4966 78.7867 53.6879C78.7867 53.8366 78.8506 53.9535 78.989 54.0597C79.1275 54.166 79.2979 54.2403 79.5003 54.2934C79.7026 54.3466 79.9263 54.4209 80.1606 54.4953C80.3949 54.5803 80.6186 54.6653 80.8209 54.7503C81.0233 54.8353 81.1937 54.9734 81.3322 55.1434C81.4706 55.324 81.5345 55.5365 81.5345 55.7809C81.5345 56.2058 81.3641 56.5139 81.0233 56.7052C80.6825 56.8964 80.2565 57.0027 79.7346 57.0027C79.0529 57.0027 78.4884 56.8645 78.0518 56.5777V55.8871C78.5097 56.1952 79.0636 56.3439 79.7026 56.3439C80.4375 56.3439 80.8103 56.1633 80.8103 55.8127C80.8103 55.6534 80.7144 55.5153 80.5227 55.3984C80.331 55.2815 80.0967 55.1965 79.8304 55.1222C79.5535 55.0478 79.2872 54.9628 79.0103 54.8672C78.7334 54.7715 78.5097 54.6228 78.318 54.4316C78.1476 54.2403 78.0624 53.996 78.0624 53.7091Z" fill="white"/>
<path d="M82.9218 56.4077C82.4638 56.004 82.2295 55.4409 82.2295 54.7397C82.2295 54.0385 82.4638 53.4754 82.9218 53.0717C83.3798 52.6679 83.923 52.4661 84.5513 52.4661C85.1904 52.4661 85.7336 52.6679 86.1809 53.0717C86.6282 53.4754 86.8625 54.0385 86.8625 54.7397C86.8625 55.4409 86.6389 56.004 86.1809 56.4077C85.7229 56.8114 85.1797 57.0133 84.5513 57.0133C83.923 57.0133 83.3798 56.8114 82.9218 56.4077ZM85.691 55.8977C85.9892 55.6109 86.1383 55.2284 86.1383 54.7397C86.1383 54.251 85.9892 53.8685 85.691 53.5816C85.3927 53.2948 85.0093 53.1566 84.5513 53.1566C84.0934 53.1566 83.7099 53.2948 83.4117 53.5816C83.1135 53.8685 82.9537 54.251 82.9537 54.7397C82.9537 55.2284 83.1028 55.6109 83.4117 55.8977C83.7099 56.1846 84.0934 56.3227 84.5513 56.3227C85.0093 56.3227 85.3927 56.1846 85.691 55.8977Z" fill="white"/>
<path d="M91.1512 52.572H91.8755V56.9068H91.2258V56.2693C91.066 56.4818 90.853 56.6624 90.5654 56.8005C90.2885 56.9493 89.9797 57.013 89.6601 57.013C89.0956 57.013 88.659 56.8536 88.3288 56.5349C88.0093 56.2162 87.8389 55.7806 87.8389 55.2494V52.572H88.5631V55.1537C88.5631 55.9506 88.9572 56.3437 89.7347 56.3437C90.2885 56.3437 90.7572 56.0568 91.1512 55.4725V52.572Z" fill="white"/>
<path d="M93.8714 53.3374C94.0418 53.0506 94.2974 52.8381 94.6489 52.6787C95.0003 52.5193 95.3625 52.4556 95.7459 52.4875V53.2099C95.3199 53.1674 94.9471 53.2312 94.6276 53.4118C94.308 53.5924 94.0737 53.858 93.9459 54.2086V56.9072H93.2217V52.5725H93.8714V53.3374Z" fill="white"/>
<path d="M96.0693 54.7609C96.0693 54.3784 96.1439 54.0385 96.2823 53.741C96.4208 53.4435 96.6019 53.1991 96.8255 53.0185C97.0492 52.8379 97.3048 52.6998 97.5817 52.6042C97.8586 52.5086 98.1356 52.4661 98.4231 52.4661C98.9557 52.4661 99.403 52.5829 99.7651 52.8167V53.5179C99.4349 53.2629 99.0196 53.1248 98.519 53.1248C98.0504 53.1248 97.6456 53.2629 97.3048 53.5285C96.964 53.8047 96.7936 54.1978 96.7936 54.729C96.7936 55.2496 96.964 55.6534 97.2942 55.9296C97.6243 56.2058 98.0291 56.3439 98.4977 56.3439C98.977 56.3439 99.4136 56.2271 99.8077 55.9933V56.7158C99.3923 56.9177 98.9237 57.0133 98.3912 57.0133C97.7628 57.0133 97.2196 56.822 96.7616 56.4289C96.3036 56.0358 96.0693 55.4834 96.0693 54.7609Z" fill="white"/>
<path d="M100.481 54.7397C100.481 54.0278 100.705 53.4754 101.142 53.0717C101.578 52.6679 102.079 52.4661 102.654 52.4661C103.187 52.4661 103.623 52.5936 103.975 52.8592C104.326 53.1248 104.55 53.4541 104.657 53.8366C104.763 54.2297 104.774 54.6334 104.678 55.0478H101.216C101.259 55.4728 101.451 55.8021 101.791 56.0146C102.132 56.2271 102.537 56.3439 103.016 56.3439C103.549 56.3439 104.028 56.2271 104.443 55.9933V56.6946C104.039 56.907 103.528 57.0133 102.899 57.0133C102.207 57.0133 101.642 56.822 101.174 56.4289C100.705 56.0358 100.481 55.4728 100.481 54.7397ZM104.017 54.4209C104.039 54.2935 104.028 54.166 103.986 54.0278C103.954 53.8897 103.89 53.7516 103.794 53.6135C103.698 53.4754 103.559 53.3585 103.368 53.2735C103.176 53.1885 102.952 53.1354 102.686 53.1354C102.292 53.1354 101.951 53.2523 101.664 53.4754C101.376 53.7091 101.216 54.0172 101.195 54.4209H104.017Z" fill="white"/>
<path d="M114.04 50.5857H114.69V56.9072H113.934V52.02L111.665 55.4198H111.197L108.928 52.02V56.9072H108.172V50.5857H108.822L111.442 54.4848L114.04 50.5857Z" fill="white"/>
<path d="M116.919 50.8511C117.004 50.9361 117.057 51.0424 117.057 51.1911C117.057 51.3398 117.015 51.4461 116.919 51.5311C116.834 51.6161 116.717 51.648 116.589 51.648C116.461 51.648 116.344 51.6055 116.259 51.5311C116.173 51.4461 116.12 51.3398 116.12 51.1911C116.12 51.0424 116.163 50.9361 116.259 50.8511C116.354 50.7661 116.461 50.7236 116.589 50.7236C116.717 50.7343 116.823 50.7768 116.919 50.8511ZM116.94 56.907H116.216V52.5723H116.94V56.907Z" fill="white"/>
<path d="M118.951 53.2098C119.111 52.9973 119.324 52.8167 119.612 52.6786C119.889 52.5298 120.198 52.4661 120.517 52.4661C121.039 52.4661 121.476 52.6254 121.816 52.9548C122.157 53.2841 122.328 53.7091 122.328 54.2297V56.907H121.603V54.3253C121.603 53.9322 121.497 53.6347 121.284 53.4329C121.071 53.231 120.783 53.1354 120.443 53.1354C119.889 53.1354 119.42 53.4223 119.026 54.0066V56.9177H118.302V52.5829H118.951V53.2098Z" fill="white"/>
<path d="M124.331 50.8511C124.416 50.9361 124.469 51.0424 124.469 51.1911C124.469 51.3398 124.427 51.4461 124.331 51.5311C124.246 51.6161 124.129 51.648 124.001 51.648C123.873 51.648 123.756 51.6055 123.671 51.5311C123.585 51.4461 123.532 51.3398 123.532 51.1911C123.532 51.0424 123.575 50.9361 123.671 50.8511C123.767 50.7661 123.873 50.7236 124.001 50.7236C124.129 50.7343 124.235 50.7768 124.331 50.8511ZM124.352 56.907H123.628V52.5723H124.352V56.907Z" fill="white"/>
<path d="M126.364 53.2098C126.523 52.9973 126.736 52.8167 127.024 52.6786C127.301 52.5298 127.61 52.4661 127.929 52.4661C128.451 52.4661 128.888 52.6254 129.229 52.9548C129.569 53.2841 129.74 53.7091 129.74 54.2297V56.907H129.016V54.3253C129.016 53.9322 128.909 53.6347 128.696 53.4329C128.483 53.231 128.195 53.1354 127.855 53.1354C127.301 53.1354 126.832 53.4223 126.438 54.0066V56.9177H125.714V52.5829H126.364V53.2098Z" fill="white"/>
<path d="M131.346 56.3652C130.931 55.9296 130.729 55.3878 130.729 54.7397C130.729 54.0916 130.931 53.5497 131.346 53.1142C131.762 52.6786 132.273 52.4661 132.901 52.4661C133.583 52.4661 134.169 52.7423 134.659 53.2948V52.5723H135.308V56.907C135.308 57.6082 135.074 58.1288 134.616 58.4794C134.158 58.83 133.594 59 132.933 59C132.284 59 131.698 58.8619 131.165 58.5963V57.8951C131.687 58.1926 132.252 58.3413 132.837 58.3413C133.349 58.3413 133.775 58.2245 134.094 58.0013C134.424 57.7782 134.584 57.417 134.573 56.9177V56.2483C134.147 56.7689 133.594 57.0239 132.891 57.0239C132.273 57.0133 131.762 56.8008 131.346 56.3652ZM134.584 54.1978C134.456 53.9003 134.243 53.6454 133.956 53.4435C133.668 53.2416 133.349 53.1354 132.976 53.1354C132.539 53.1354 132.177 53.2841 131.889 53.5816C131.602 53.8791 131.453 54.2616 131.453 54.7503C131.453 55.239 131.602 55.6215 131.889 55.919C132.188 56.2165 132.55 56.3652 132.976 56.3652C133.349 56.3652 133.668 56.2696 133.956 56.0783C134.243 55.8871 134.446 55.6534 134.584 55.3878V54.1978Z" fill="white"/>
<path d="M138.686 52.1478C138.686 51.6165 138.899 51.2022 139.315 50.9153C139.73 50.6285 140.252 50.4797 140.859 50.4797C141.605 50.4797 142.244 50.6285 142.776 50.9366V51.6909C142.244 51.3509 141.626 51.1809 140.912 51.1916C139.943 51.1916 139.453 51.4997 139.453 52.1159C139.453 52.3602 139.549 52.5727 139.73 52.7427C139.922 52.9233 140.146 53.0508 140.422 53.1358C140.699 53.2208 140.998 53.3271 141.328 53.4439C141.658 53.5608 141.956 53.6777 142.233 53.8052C142.51 53.9327 142.744 54.1133 142.925 54.3682C143.117 54.6232 143.202 54.9207 143.202 55.2819C143.202 55.5794 143.138 55.845 143.011 56.0788C142.883 56.3019 142.702 56.4825 142.478 56.6206C142.254 56.7481 142.009 56.8437 141.733 56.9075C141.456 56.9712 141.168 56.9925 140.849 56.9925C140.05 56.9925 139.325 56.8119 138.676 56.4506V55.6963C139.315 56.0788 140.018 56.27 140.795 56.27C141.882 56.27 142.425 55.9619 142.425 55.3351C142.425 55.1013 142.35 54.9101 142.212 54.7401C142.073 54.5701 141.892 54.4426 141.669 54.3364C141.445 54.2301 141.2 54.1451 140.934 54.0601C140.667 53.9752 140.401 53.8795 140.135 53.7839C139.869 53.6883 139.624 53.5714 139.4 53.4439C139.176 53.3164 138.995 53.1358 138.857 52.9127C138.75 52.7109 138.686 52.4452 138.686 52.1478Z" fill="white"/>
<path d="M144.587 56.4077C144.129 56.004 143.895 55.4409 143.895 54.7397C143.895 54.0385 144.118 53.4754 144.587 53.0717C145.055 52.6679 145.588 52.4661 146.216 52.4661C146.845 52.4661 147.399 52.6679 147.846 53.0717C148.293 53.4754 148.528 54.0385 148.528 54.7397C148.528 55.4409 148.304 56.004 147.846 56.4077C147.388 56.8114 146.845 57.0133 146.216 57.0133C145.588 57.0133 145.045 56.8114 144.587 56.4077ZM147.356 55.8977C147.654 55.6109 147.803 55.2284 147.803 54.7397C147.803 54.251 147.654 53.8685 147.356 53.5816C147.058 53.2948 146.674 53.1566 146.216 53.1566C145.758 53.1566 145.375 53.2948 145.077 53.5816C144.779 53.8685 144.629 54.251 144.629 54.7397C144.629 55.2284 144.779 55.6109 145.077 55.8977C145.375 56.1846 145.758 56.3227 146.216 56.3227C146.674 56.3227 147.058 56.1846 147.356 55.8977Z" fill="white"/>
<path d="M149.59 50.3203H150.314V56.918H149.59V50.3203Z" fill="white"/>
<path d="M154.924 52.572H155.648V56.9068H154.998V56.2693C154.838 56.4818 154.625 56.6624 154.338 56.8005C154.061 56.9493 153.752 57.013 153.433 57.013C152.868 57.013 152.431 56.8536 152.101 56.5349C151.782 56.2162 151.611 55.7806 151.611 55.2494V52.572H152.336V55.1537C152.336 55.9506 152.73 56.3437 153.507 56.3437C154.061 56.3437 154.53 56.0568 154.924 55.4725V52.572Z" fill="white"/>
<path d="M157.286 51.2231L157.999 51.0425V52.5724H159.735V53.2417H157.999V55.4835C157.999 55.8022 158.074 56.0253 158.223 56.1528C158.372 56.2803 158.607 56.344 158.937 56.344C159.246 56.344 159.565 56.2803 159.895 56.1422V56.8115C159.522 56.939 159.139 57.0134 158.724 57.0134C158.287 57.0134 157.936 56.8965 157.669 56.6521C157.414 56.4184 157.275 56.0678 157.275 55.6109V53.2417H156.455V52.5724H157.275V51.2231H157.286Z" fill="white"/>
<path d="M161.414 50.8511C161.499 50.9361 161.553 51.0424 161.553 51.1911C161.553 51.3398 161.51 51.4461 161.414 51.5311C161.329 51.6161 161.212 51.648 161.084 51.648C160.956 51.648 160.839 51.6055 160.754 51.5311C160.668 51.4461 160.615 51.3398 160.615 51.1911C160.615 51.0424 160.658 50.9361 160.754 50.8511C160.85 50.7661 160.956 50.7236 161.084 50.7236C161.212 50.7343 161.329 50.7768 161.414 50.8511ZM161.446 56.907H160.722V52.5723H161.446V56.907Z" fill="white"/>
<path d="M163.195 56.4077C162.737 56.004 162.503 55.4409 162.503 54.7397C162.503 54.0385 162.727 53.4754 163.195 53.0717C163.664 52.6679 164.196 52.4661 164.825 52.4661C165.453 52.4661 166.007 52.6679 166.454 53.0717C166.902 53.4754 167.136 54.0385 167.136 54.7397C167.136 55.4409 166.912 56.004 166.454 56.4077C165.996 56.8114 165.453 57.0133 164.825 57.0133C164.196 57.0133 163.653 56.8114 163.195 56.4077ZM165.964 55.8977C166.263 55.6109 166.412 55.2284 166.412 54.7397C166.412 54.251 166.263 53.8685 165.964 53.5816C165.666 53.2948 165.283 53.1566 164.825 53.1566C164.367 53.1566 163.983 53.2948 163.685 53.5816C163.387 53.8685 163.238 54.251 163.238 54.7397C163.238 55.2284 163.387 55.6109 163.685 55.8977C163.983 56.1846 164.367 56.3227 164.825 56.3227C165.283 56.3227 165.666 56.1846 165.964 55.8977Z" fill="white"/>
<path d="M168.825 53.2098C168.985 52.9973 169.198 52.8167 169.486 52.6786C169.763 52.5298 170.072 52.4661 170.391 52.4661C170.913 52.4661 171.35 52.6254 171.691 52.9548C172.031 53.2841 172.202 53.7091 172.202 54.2297V56.907H171.478V54.3253C171.478 53.9322 171.371 53.6347 171.158 53.4329C170.945 53.231 170.657 53.1354 170.317 53.1354C169.763 53.1354 169.294 53.4223 168.9 54.0066V56.9177H168.176V52.5829H168.825V53.2098Z" fill="white"/>
</svg>
