<svg width="176" height="54" viewBox="0 0 176 54" fill="none" xmlns="http://www.w3.org/2000/svg">
<path fill-rule="evenodd" clip-rule="evenodd" d="M46.9541 0.00239271L28.4036 0.0121167C27.3215 -0.075399 26.2688 0.31356 25.5084 1.1012L15.156 11.4378C14.8928 11.6809 14.7271 12.0407 14.7271 12.4296C14.7271 13.1784 15.3314 13.7813 16.0918 13.7813H34.8958C35.8121 13.791 36.6407 13.4506 37.2743 12.9061L47.9289 2.25835C48.1531 2.01525 48.2896 1.69436 48.2896 1.3443C48.2896 0.595555 47.6852 0.0121167 46.9541 0.00239271Z" fill="#F93B1D"/>
<path fill-rule="evenodd" clip-rule="evenodd" d="M13.8035 16.008L13.7937 34.5127C13.8814 35.592 13.4915 36.6422 12.7019 37.4007L2.34949 47.7373C2.10578 47.9998 1.75485 48.1651 1.35518 48.1651C0.604583 48.1651 0.000203478 47.5525 0.000203478 46.8038V28.0462C-0.00954458 27.1322 0.331637 26.3056 0.877528 25.6736L11.5419 15.0356C11.7856 14.8119 12.1073 14.6758 12.4582 14.6758C13.2088 14.6855 13.7937 15.2884 13.8035 16.008Z" fill="#F93B1D"/>
<path fill-rule="evenodd" clip-rule="evenodd" d="M52.2178 5.19502L52.208 23.6997C52.2957 24.7791 51.9058 25.8293 51.1162 26.5878L40.7638 36.9243C40.5201 37.1869 40.1692 37.3522 39.7695 37.3522C39.0189 37.3522 38.4145 36.7493 38.4145 35.9908V17.243C38.4048 16.329 38.7459 15.5024 39.2918 14.8704L49.9562 4.23235C50.1999 4.00869 50.5216 3.87256 50.8725 3.87256C51.6231 3.87256 52.208 4.47544 52.2178 5.19502Z" fill="#F93B1D"/>
<path fill-rule="evenodd" clip-rule="evenodd" d="M16.3646 38.3242L34.9151 38.3339C35.9971 38.2464 37.0499 38.6353 37.8103 39.423L48.1627 49.7498C48.4259 49.9929 48.5916 50.343 48.5916 50.7417C48.5916 51.4904 47.9873 52.0933 47.2367 52.0933H28.4424C27.5261 52.103 26.6975 51.7627 26.0639 51.2182L15.3995 40.5801C15.1753 40.337 15.0388 40.0161 15.0388 39.6661C15.0388 38.9173 15.6432 38.3339 16.3646 38.3242Z" fill="#F93B1D"/>
<path d="M66.061 39.8998H61.2942V25.9653H73.5767C77.9829 25.9653 80.1859 27.1711 80.1859 29.5826V29.8063C80.1859 31.2746 79.2404 32.2956 77.359 32.8596C78.2168 33.0833 78.9187 33.4625 79.4451 33.9973C79.9812 34.5321 80.2444 35.2225 80.2444 36.0685V38.1106C80.2444 38.9468 80.2444 39.9095 80.2444 39.9095H75.4484C75.4484 39.9095 75.4484 39.4428 75.4484 39.0246V37.4104C75.4484 36.545 75.2047 35.9227 74.727 35.5337C74.2494 35.1448 73.4305 34.9503 72.2705 34.9503H66.0512V39.8998H66.061ZM66.061 31.8678H73.2843C73.9374 31.8678 74.4248 31.7414 74.7368 31.4885C75.0487 31.2357 75.2047 30.9051 75.2047 30.4967V30.4773C75.2047 30.0786 75.0487 29.7577 74.7368 29.5049C74.4248 29.252 73.9374 29.1256 73.2843 29.1256H66.061V31.8678Z" fill="#F93B1D"/>
<path d="M98.4622 25.9165V29.0865H87.1058V31.148H98.2088V34.3375H87.1058V36.6226H98.6767V39.8704H82.3877V25.9165H98.4622Z" fill="#F93B1D"/>
<path d="M100.797 25.9653H107.572L112.835 34.6391L118.119 25.9653H124.65V39.8998H119.942V30.2536L113.947 39.8998H111.393L105.398 30.2536V39.8998H100.816V25.9653H100.797Z" fill="#F93B1D"/>
<path d="M131.801 39.8804H127.044V25.9751H131.801V39.8804Z" fill="#F93B1D"/>
<path d="M139.514 25.9653L149.233 34.7266V25.9653H153.941V39.8998H149.233L138.9 30.6717V39.8998H134.192V25.9653H139.514Z" fill="#F93B1D"/>
<path d="M160.774 39.7928C159.643 39.5595 158.766 39.2677 158.152 38.9274C157.537 38.5871 157.05 38.1787 156.689 37.7022C156.329 37.2257 156.095 36.7881 155.997 36.3992C155.89 36.0102 155.841 35.6018 155.841 35.1642V34.96H160.813C160.92 36.4381 161.992 37.1674 164.897 37.1674H166.009C166.964 37.1674 167.364 37.1285 167.997 37.0409C168.631 36.9632 169.079 36.8465 169.372 36.6909C169.654 36.545 169.849 36.3894 169.947 36.2339C170.044 36.0783 170.093 35.8935 170.093 35.6796C170.093 35.3781 170.015 35.1448 169.849 34.9697C169.684 34.7947 169.303 34.6391 168.699 34.5127C168.095 34.3863 167.227 34.3085 166.096 34.2793L164.595 34.2502L163.474 34.2307C158.522 34.1043 156.046 32.743 156.046 30.1467V29.9813C156.046 29.534 156.105 29.1159 156.231 28.7367C156.358 28.3574 156.602 27.9782 156.972 27.599C157.343 27.2197 157.82 26.8989 158.415 26.6363C159.009 26.3738 159.809 26.1598 160.823 25.9945C161.836 25.8292 163.006 25.7417 164.342 25.7417H165.755C167.149 25.7417 168.377 25.8292 169.44 26.0042C170.502 26.1793 171.35 26.4029 171.984 26.6752C172.618 26.9475 173.134 27.2878 173.544 27.6865C173.943 28.0852 174.226 28.4839 174.372 28.8728C174.519 29.2715 174.597 29.6896 174.597 30.1369V30.3217H169.645C169.615 30.1661 169.576 30.0397 169.528 29.9327C169.479 29.8258 169.362 29.6896 169.186 29.5146C169.011 29.3396 168.777 29.1937 168.494 29.0867C168.202 28.9701 167.783 28.8728 167.217 28.7853C166.652 28.6978 166.213 28.6589 165.463 28.6589H164.751C163.601 28.6589 162.879 28.727 162.275 28.8534C161.661 28.9895 161.29 29.1256 161.154 29.2618C161.027 29.4076 160.959 29.6021 160.959 29.8549C160.959 30.0883 161.027 30.2828 161.173 30.4384C161.32 30.5842 161.661 30.7301 162.197 30.8468C162.733 30.9732 163.494 31.0413 164.478 31.051L165.599 31.0704L167.032 31.0899C169.869 31.1385 171.926 31.4886 173.183 32.1498C174.441 32.8013 175.074 33.832 175.074 35.2323V35.4948C175.074 36.0102 175.016 36.4672 174.889 36.8659C174.762 37.2743 174.509 37.6925 174.129 38.1106C173.748 38.5384 173.242 38.8885 172.608 39.1802C171.974 39.4719 171.107 39.7053 170.005 39.8803C168.904 40.0651 167.617 40.1526 166.145 40.1526H164.732C163.23 40.1429 161.905 40.0262 160.774 39.7928Z" fill="#F93B1D"/>
<path d="M61.9863 52.0846H61.2942V46.2988H63.5655C63.9457 46.2988 64.2966 46.3474 64.5988 46.4544C64.9107 46.5614 65.1739 46.7461 65.3981 47.0184C65.6223 47.2907 65.7296 47.6407 65.7296 48.0589C65.7296 48.5548 65.5833 48.9437 65.3006 49.216C65.018 49.4883 64.6378 49.673 64.1796 49.7508L66.139 52.0943H65.2714L63.3705 49.8092H61.9766V52.0846H61.9863ZM61.9863 46.9601V49.1382H63.5947C64.0042 49.1382 64.3453 49.0507 64.6183 48.8854C64.8912 48.7201 65.0277 48.4381 65.0277 48.0491C65.0277 47.6505 64.8912 47.3685 64.6183 47.2032C64.3453 47.0378 64.0042 46.9601 63.5947 46.9601H61.9863Z" fill="#F93B1D"/>
<path d="M66.4045 50.1009C66.4045 49.4494 66.6093 48.9438 67.0089 48.5743C67.4086 48.2048 67.8668 48.02 68.3931 48.02C68.8805 48.02 69.2802 48.1367 69.6019 48.3798C69.9236 48.6229 70.1283 48.9243 70.2258 49.2744C70.3233 49.6342 70.333 50.0037 70.2453 50.3829H67.0772C67.1162 50.7719 67.2916 51.0733 67.6035 51.2678C67.9155 51.4623 68.2859 51.5693 68.7246 51.5693C69.212 51.5693 69.6506 51.4623 70.0308 51.2484V51.8902C69.6604 52.0846 69.1925 52.1819 68.6173 52.1819C67.9837 52.1819 67.4671 52.0068 67.0479 51.6471C66.6287 51.2873 66.4045 50.7719 66.4045 50.1009ZM69.6506 49.8092C69.6701 49.6925 69.6604 49.5759 69.6214 49.4494C69.5922 49.323 69.5337 49.1966 69.4459 49.0702C69.3582 48.9438 69.2315 48.8368 69.056 48.759C68.8805 48.6812 68.6758 48.6326 68.4321 48.6326C68.0715 48.6326 67.7595 48.7396 67.4963 48.9438C67.2331 49.1577 67.0869 49.4397 67.0674 49.8092H69.6506Z" fill="#F93B1D"/>
<path d="M70.9927 49.1577C70.9927 48.7785 71.1389 48.4965 71.4313 48.302C71.7238 48.1075 72.0844 48.02 72.5036 48.02C73.0203 48.02 73.4882 48.1367 73.9171 48.3604V48.9924C73.7514 48.8855 73.5369 48.7882 73.2835 48.7201C73.03 48.6521 72.7863 48.6132 72.5426 48.6132C72.2989 48.6132 72.0942 48.6521 71.9187 48.7396C71.7433 48.8271 71.6555 48.9632 71.6555 49.1383C71.6555 49.2744 71.714 49.3814 71.8407 49.4786C71.9675 49.5759 72.1234 49.6439 72.3086 49.6925C72.4939 49.7412 72.6986 49.8092 72.913 49.8773C73.1275 49.9551 73.3322 50.0329 73.5174 50.1107C73.7026 50.1885 73.8586 50.3149 73.9853 50.4705C74.112 50.6358 74.1705 50.8302 74.1705 51.0539C74.1705 51.4429 74.0146 51.7248 73.7026 51.8999C73.3907 52.0749 73.0008 52.1722 72.5231 52.1722C71.8992 52.1722 71.3826 52.0457 70.9829 51.7832V51.1511C71.4021 51.4331 71.909 51.5693 72.4939 51.5693C73.1665 51.5693 73.5077 51.404 73.5077 51.0831C73.5077 50.9372 73.4199 50.8108 73.2445 50.7038C73.069 50.5969 72.8545 50.5191 72.6108 50.451C72.3574 50.3829 72.1137 50.3052 71.8602 50.2176C71.6068 50.1301 71.4021 49.994 71.2266 49.819C71.0706 49.6439 70.9927 49.4203 70.9927 49.1577Z" fill="#F93B1D"/>
<path d="M75.442 51.6276C75.0228 51.2581 74.8083 50.7427 74.8083 50.1009C74.8083 49.4592 75.0228 48.9438 75.442 48.5743C75.8611 48.2048 76.3583 48.02 76.9334 48.02C77.5183 48.02 78.0155 48.2048 78.4249 48.5743C78.8343 48.9438 79.0488 49.4592 79.0488 50.1009C79.0488 50.7427 78.844 51.2581 78.4249 51.6276C78.0057 51.9971 77.5086 52.1819 76.9334 52.1819C76.3583 52.1819 75.8611 51.9971 75.442 51.6276ZM77.9765 51.1609C78.2494 50.8983 78.3859 50.5482 78.3859 50.1009C78.3859 49.6536 78.2494 49.3036 77.9765 49.041C77.7035 48.7785 77.3526 48.6521 76.9334 48.6521C76.5143 48.6521 76.1633 48.7785 75.8904 49.041C75.6174 49.3036 75.4712 49.6536 75.4712 50.1009C75.4712 50.5482 75.6077 50.8983 75.8904 51.1609C76.1633 51.4234 76.5143 51.5498 76.9334 51.5498C77.3526 51.5498 77.7035 51.4234 77.9765 51.1609Z" fill="#F93B1D"/>
<path d="M82.9745 48.1172H83.6374V52.0846H83.0428V51.5011C82.8965 51.6956 82.7016 51.8609 82.4384 51.9873C82.1849 52.1235 81.9022 52.1818 81.6098 52.1818C81.0931 52.1818 80.6935 52.0359 80.3913 51.7442C80.0988 51.4525 79.9429 51.0538 79.9429 50.5676V48.1172H80.6057V50.4801C80.6057 51.2094 80.9664 51.5692 81.678 51.5692C82.1849 51.5692 82.6138 51.3066 82.9745 50.7718V48.1172Z" fill="#F93B1D"/>
<path d="M85.4657 48.8174C85.6217 48.5549 85.8556 48.3604 86.1773 48.2146C86.499 48.0687 86.8304 48.0103 87.1814 48.0395V48.7007C86.7915 48.6619 86.4503 48.7202 86.1578 48.8855C85.8654 49.0508 85.6509 49.2939 85.534 49.6148V52.0847H84.8711V48.1173H85.4657V48.8174Z" fill="#F93B1D"/>
<path d="M87.4741 50.1204C87.4741 49.7703 87.5424 49.4592 87.6691 49.1869C87.7958 48.9146 87.9615 48.691 88.1662 48.5257C88.3709 48.3604 88.6049 48.2339 88.8583 48.1464C89.1118 48.0589 89.3652 48.02 89.6284 48.02C90.1158 48.02 90.5253 48.127 90.8567 48.3409V48.9827C90.5545 48.7493 90.1743 48.6229 89.7162 48.6229C89.2873 48.6229 88.9168 48.7493 88.6049 48.9924C88.293 49.2452 88.137 49.605 88.137 50.0912C88.137 50.5677 88.293 50.9372 88.5951 51.19C88.8973 51.4429 89.2678 51.5693 89.6967 51.5693C90.1353 51.5693 90.535 51.4623 90.8957 51.2484V51.9096C90.5155 52.0944 90.0866 52.1819 89.5992 52.1819C89.0241 52.1819 88.5269 52.0068 88.1077 51.6471C87.6886 51.2873 87.4741 50.7816 87.4741 50.1204Z" fill="#F93B1D"/>
<path d="M91.5156 50.1009C91.5156 49.4494 91.7203 48.9438 92.12 48.5743C92.5197 48.2048 92.9778 48.02 93.5042 48.02C93.9916 48.02 94.3913 48.1367 94.713 48.3798C95.0347 48.6229 95.2394 48.9243 95.3369 49.2744C95.4343 49.6342 95.4441 50.0037 95.3564 50.3829H92.1882C92.2272 50.7719 92.4027 51.0733 92.7146 51.2678C93.0266 51.4623 93.397 51.5693 93.8357 51.5693C94.3231 51.5693 94.7617 51.4623 95.1419 51.2484V51.8902C94.7715 52.0846 94.3036 52.1819 93.7284 52.1819C93.0948 52.1819 92.5782 52.0068 92.1492 51.6471C91.7203 51.2873 91.5156 50.7719 91.5156 50.1009ZM94.752 49.8092C94.7715 49.6925 94.7617 49.5759 94.7227 49.4494C94.6935 49.323 94.635 49.1966 94.5473 49.0702C94.4595 48.9438 94.3328 48.8368 94.1573 48.759C93.9819 48.6812 93.7772 48.6326 93.5335 48.6326C93.1728 48.6326 92.8609 48.7396 92.5977 48.9438C92.3345 49.1577 92.1882 49.4397 92.1687 49.8092H94.752Z" fill="#F93B1D"/>
<path d="M103.92 46.2988H104.514V52.0846H103.822V47.6116L101.746 50.7232H101.317L99.2405 47.6116V52.0846H98.5483V46.2988H99.143L101.541 49.8675L103.92 46.2988Z" fill="#F93B1D"/>
<path d="M106.557 46.5425C106.635 46.6203 106.684 46.7175 106.684 46.8536C106.684 46.9898 106.645 47.087 106.557 47.1648C106.479 47.2426 106.372 47.2718 106.255 47.2718C106.138 47.2718 106.03 47.2329 105.952 47.1648C105.874 47.087 105.826 46.9898 105.826 46.8536C105.826 46.7175 105.865 46.6203 105.952 46.5425C106.04 46.4647 106.138 46.4258 106.255 46.4258C106.372 46.4355 106.469 46.4744 106.557 46.5425ZM106.576 52.0851H105.913V48.1177H106.576V52.0851Z" fill="#F93B1D"/>
<path d="M108.419 48.7007C108.566 48.5062 108.761 48.3409 109.024 48.2145C109.277 48.0784 109.56 48.02 109.852 48.02C110.33 48.02 110.73 48.1659 111.042 48.4673C111.354 48.7688 111.509 49.1577 111.509 49.6342V52.0846H110.847V49.7217C110.847 49.3619 110.749 49.0897 110.554 48.9049C110.359 48.7201 110.096 48.6326 109.784 48.6326C109.277 48.6326 108.848 48.8952 108.488 49.43V52.0944H107.825V48.127H108.419V48.7007Z" fill="#F93B1D"/>
<path d="M113.345 46.5425C113.423 46.6203 113.472 46.7175 113.472 46.8536C113.472 46.9898 113.433 47.087 113.345 47.1648C113.267 47.2426 113.16 47.2718 113.043 47.2718C112.926 47.2718 112.818 47.2329 112.74 47.1648C112.663 47.087 112.614 46.9898 112.614 46.8536C112.614 46.7175 112.653 46.6203 112.74 46.5425C112.828 46.4647 112.926 46.4258 113.043 46.4258C113.16 46.4355 113.257 46.4744 113.345 46.5425ZM113.364 52.0851H112.701V48.1177H113.364V52.0851Z" fill="#F93B1D"/>
<path d="M115.208 48.7007C115.354 48.5062 115.549 48.3409 115.812 48.2145C116.066 48.0784 116.348 48.02 116.641 48.02C117.118 48.02 117.518 48.1659 117.83 48.4673C118.142 48.7688 118.298 49.1577 118.298 49.6342V52.0846H117.635V49.7217C117.635 49.3619 117.537 49.0897 117.342 48.9049C117.148 48.7201 116.884 48.6326 116.572 48.6326C116.065 48.6326 115.637 48.8952 115.276 49.43V52.0944H114.613V48.127H115.208V48.7007Z" fill="#F93B1D"/>
<path d="M119.761 51.5887C119.381 51.19 119.196 50.6941 119.196 50.1009C119.196 49.5078 119.381 49.0119 119.761 48.6132C120.142 48.2145 120.61 48.02 121.185 48.02C121.809 48.02 122.345 48.2728 122.793 48.7785V48.1173H123.388V52.0846C123.388 52.7264 123.173 53.2029 122.754 53.5238C122.335 53.8447 121.818 54.0003 121.214 54.0003C120.619 54.0003 120.083 53.8738 119.596 53.6307V52.989C120.073 53.2612 120.59 53.3974 121.126 53.3974C121.594 53.3974 121.984 53.2904 122.276 53.0862C122.579 52.882 122.725 52.5514 122.715 52.0944V51.4817C122.325 51.9582 121.818 52.1916 121.175 52.1916C120.61 52.1819 120.142 51.9874 119.761 51.5887ZM122.725 49.605C122.608 49.3328 122.413 49.0994 122.15 48.9146C121.887 48.7299 121.594 48.6326 121.253 48.6326C120.853 48.6326 120.522 48.7688 120.259 49.041C119.995 49.3133 119.859 49.6634 119.859 50.1107C119.859 50.558 119.995 50.908 120.259 51.1803C120.532 51.4526 120.863 51.5887 121.253 51.5887C121.594 51.5887 121.887 51.5012 122.15 51.3262C122.413 51.1511 122.598 50.9372 122.725 50.6941V49.605Z" fill="#F93B1D"/>
<path d="M126.478 47.7283C126.478 47.2421 126.673 46.8629 127.053 46.6003C127.434 46.3378 127.911 46.2017 128.467 46.2017C129.149 46.2017 129.734 46.3378 130.222 46.6198V47.3102C129.734 46.999 129.169 46.8434 128.516 46.8532C127.629 46.8532 127.18 47.1352 127.18 47.6992C127.18 47.9228 127.268 48.1173 127.434 48.2729C127.609 48.4382 127.814 48.5549 128.067 48.6327C128.321 48.7104 128.594 48.8077 128.896 48.9146C129.198 49.0216 129.471 49.1286 129.724 49.2453C129.978 49.3619 130.192 49.5273 130.358 49.7606C130.533 49.994 130.611 50.2663 130.611 50.5969C130.611 50.8692 130.553 51.1123 130.436 51.3262C130.319 51.5304 130.153 51.6957 129.949 51.8221C129.744 51.9388 129.52 52.0263 129.266 52.0847C129.013 52.143 128.75 52.1625 128.457 52.1625C127.726 52.1625 127.063 51.9971 126.469 51.6665V50.9761C127.053 51.3262 127.697 51.5012 128.408 51.5012C129.403 51.5012 129.9 51.2192 129.9 50.6455C129.9 50.4316 129.832 50.2566 129.705 50.101C129.578 49.9454 129.412 49.8287 129.208 49.7315C129.003 49.6342 128.779 49.5564 128.535 49.4786C128.291 49.4008 128.048 49.3133 127.804 49.2258C127.56 49.1383 127.336 49.0313 127.131 48.9146C126.927 48.798 126.761 48.6327 126.634 48.4284C126.537 48.2437 126.478 48.0006 126.478 47.7283Z" fill="#F93B1D"/>
<path d="M131.877 51.6276C131.458 51.2581 131.243 50.7427 131.243 50.1009C131.243 49.4592 131.448 48.9438 131.877 48.5743C132.306 48.2048 132.793 48.02 133.368 48.02C133.944 48.02 134.451 48.2048 134.86 48.5743C135.269 48.9438 135.484 49.4592 135.484 50.1009C135.484 50.7427 135.279 51.2581 134.86 51.6276C134.441 51.9971 133.944 52.1819 133.368 52.1819C132.793 52.1819 132.296 51.9971 131.877 51.6276ZM134.412 51.1609C134.684 50.8983 134.821 50.5482 134.821 50.1009C134.821 49.6536 134.684 49.3036 134.412 49.041C134.139 48.7785 133.788 48.6521 133.368 48.6521C132.949 48.6521 132.598 48.7785 132.325 49.041C132.052 49.3036 131.916 49.6536 131.916 50.1009C131.916 50.5482 132.052 50.8983 132.325 51.1609C132.598 51.4234 132.949 51.5498 133.368 51.5498C133.788 51.5498 134.139 51.4234 134.412 51.1609Z" fill="#F93B1D"/>
<path d="M136.464 46.0557H137.127V52.0942H136.464V46.0557Z" fill="#F93B1D"/>
<path d="M141.341 48.1172H142.004V52.0846H141.409V51.5011C141.263 51.6956 141.068 51.8609 140.805 51.9873C140.552 52.1235 140.269 52.1818 139.976 52.1818C139.46 52.1818 139.06 52.0359 138.758 51.7442C138.466 51.4525 138.31 51.0538 138.31 50.5676V48.1172H138.972V50.4801C138.972 51.2094 139.333 51.5692 140.045 51.5692C140.552 51.5692 140.981 51.3066 141.341 50.7718V48.1172Z" fill="#F93B1D"/>
<path d="M143.5 46.8826L144.153 46.7173V48.1175H145.742V48.7301H144.153V50.7819C144.153 51.0736 144.221 51.2778 144.357 51.3945C144.494 51.5112 144.708 51.5695 145.011 51.5695C145.293 51.5695 145.586 51.5112 145.888 51.3848V51.9974C145.547 52.1141 145.196 52.1822 144.816 52.1822C144.416 52.1822 144.094 52.0752 143.851 51.8515C143.617 51.6376 143.49 51.3167 143.49 50.8986V48.7301H142.739V48.1175H143.49V46.8826H143.5Z" fill="#F93B1D"/>
<path d="M147.282 46.5425C147.36 46.6203 147.408 46.7175 147.408 46.8536C147.408 46.9898 147.369 47.087 147.282 47.1648C147.204 47.2426 147.096 47.2718 146.979 47.2718C146.862 47.2718 146.755 47.2329 146.677 47.1648C146.599 47.087 146.551 46.9898 146.551 46.8536C146.551 46.7175 146.59 46.6203 146.677 46.5425C146.765 46.4647 146.862 46.4258 146.979 46.4258C147.096 46.4355 147.204 46.4744 147.282 46.5425ZM147.311 52.0851H146.648V48.1177H147.311V52.0851Z" fill="#F93B1D"/>
<path d="M148.91 51.6276C148.491 51.2581 148.276 50.7427 148.276 50.1009C148.276 49.4592 148.481 48.9438 148.91 48.5743C149.339 48.2048 149.826 48.02 150.401 48.02C150.977 48.02 151.483 48.2048 151.893 48.5743C152.302 48.9438 152.517 49.4592 152.517 50.1009C152.517 50.7427 152.312 51.2581 151.893 51.6276C151.474 51.9971 150.977 52.1819 150.401 52.1819C149.826 52.1819 149.329 51.9971 148.91 51.6276ZM151.444 51.1609C151.717 50.8983 151.854 50.5482 151.854 50.1009C151.854 49.6536 151.717 49.3036 151.444 49.041C151.172 48.7785 150.821 48.6521 150.401 48.6521C149.982 48.6521 149.631 48.7785 149.358 49.041C149.085 49.3036 148.949 49.6536 148.949 50.1009C148.949 50.5482 149.085 50.8983 149.358 51.1609C149.631 51.4234 149.982 51.5498 150.401 51.5498C150.821 51.5498 151.172 51.4234 151.444 51.1609Z" fill="#F93B1D"/>
<path d="M154.068 48.7007C154.214 48.5062 154.409 48.3409 154.672 48.2145C154.926 48.0784 155.208 48.02 155.501 48.02C155.978 48.02 156.378 48.1659 156.69 48.4673C157.002 48.7688 157.158 49.1577 157.158 49.6342V52.0846H156.495V49.7217C156.495 49.3619 156.398 49.0897 156.203 48.9049C156.008 48.7201 155.744 48.6326 155.433 48.6326C154.926 48.6326 154.497 48.8952 154.136 49.43V52.0944H153.473V48.127H154.068V48.7007Z" fill="#F93B1D"/>
</svg>
