<svg width="193" height="30" viewBox="0 0 193 30" fill="none" xmlns="http://www.w3.org/2000/svg">
<g clip-path="url(#clip0_3814_48)">
<path fill-rule="evenodd" clip-rule="evenodd" d="M69.135 0.00520854L29.3395 0.026376C27.0183 -0.164131 24.7598 0.682569 23.1287 2.39714L0.920129 24.8982C0.355505 25.4274 0 26.2106 0 27.0573C0 28.6872 1.29654 29.9996 2.92768 29.9996H43.2669C45.2326 30.0207 47.0102 29.2799 48.3694 28.0945L71.2262 4.91607C71.7072 4.38688 72 3.68835 72 2.92632C72 1.29643 70.7034 0.026376 69.135 0.00520854Z" fill="#F93B1D"/>
<path fill-rule="evenodd" clip-rule="evenodd" d="M129.135 0.00520854L89.3395 0.026376C87.0183 -0.164131 84.7598 0.682569 83.1287 2.39714L60.9201 24.8982C60.3555 25.4274 60 26.2106 60 27.0573C60 28.6872 61.2965 29.9996 62.9277 29.9996H103.267C105.233 30.0207 107.01 29.2799 108.369 28.0945L131.226 4.91607C131.707 4.38688 132 3.68835 132 2.92632C132 1.29643 130.703 0.026376 129.135 0.00520854Z" fill="#F93B1D"/>
<path fill-rule="evenodd" clip-rule="evenodd" d="M190.135 0.00520854L150.34 0.026376C148.018 -0.164131 145.76 0.682569 144.129 2.39714L121.92 24.8982C121.356 25.4274 121 26.2106 121 27.0573C121 28.6872 122.297 29.9996 123.928 29.9996H164.267C166.233 30.0207 168.01 29.2799 169.369 28.0945L192.226 4.91607C192.707 4.38688 193 3.68835 193 2.92632C193 1.29643 191.703 0.026376 190.135 0.00520854Z" fill="#F93B1D"/>
</g>
<defs>
<clipPath id="clip0_3814_48">
<rect width="193" height="30" fill="white"/>
</clipPath>
</defs>
</svg>
