<svg width="20" height="20" viewBox="0 0 20 20" fill="none" xmlns="http://www.w3.org/2000/svg">
<path d="M3.67963 1.58353L4.55605 0.707107C4.94658 0.316583 5.57974 0.316582 5.97026 0.707106L8.76658 3.50342C9.1571 3.89394 9.1571 4.52711 8.76658 4.91763L6.84261 6.8416C6.528 7.15621 6.45 7.63685 6.64898 8.03481C7.79925 10.3353 9.66465 12.2007 11.9652 13.351C12.3632 13.55 12.8438 13.472 13.1584 13.1574L15.0824 11.2334C15.4729 10.8429 16.1061 10.8429 16.4966 11.2334L19.2929 14.0297C19.6834 14.4203 19.6834 15.0534 19.2929 15.4439L18.4165 16.3204C16.3051 18.4317 12.9625 18.6693 10.5738 16.8777L8.94436 15.6556C7.20083 14.348 5.65201 12.7992 4.34436 11.0556L3.12226 9.42618C1.33072 7.03745 1.56827 3.69488 3.67963 1.58353Z" fill="#F93B1D"/>
</svg>
