<svg width="20" height="14" viewBox="0 0 20 14" fill="none" xmlns="http://www.w3.org/2000/svg">
<path fill-rule="evenodd" clip-rule="evenodd" d="M0.013846 4.12551C0 4.67068 0 5.2909 0 6V8C0 10.8284 0 12.2426 0.87868 13.1213C1.75736 14 3.17157 14 6 14H14C16.8284 14 18.2426 14 19.1213 13.1213C20 12.2426 20 10.8284 20 8V6C20 5.2909 20 4.67068 19.9862 4.12551L10.8944 8.67137C10.3314 8.9529 9.66863 8.9529 9.10557 8.67137L0.013846 4.12551ZM0.242816 2.03026C0.312135 2.04768 0.380643 2.07284 0.447214 2.10613L10 6.88252L19.5528 2.10613C19.6194 2.07284 19.6879 2.04768 19.7572 2.03026C19.6272 1.55648 19.4277 1.18503 19.1213 0.87868C18.2426 0 16.8284 0 14 0H6C3.17157 0 1.75736 0 0.87868 0.87868C0.57233 1.18503 0.372788 1.55648 0.242816 2.03026Z" fill="#F93B1D"/>
</svg>
