<svg width="31" height="30" viewBox="0 0 31 30" fill="none" xmlns="http://www.w3.org/2000/svg">
<circle cx="15.5" cy="15" r="15" fill="#212121"/>
<path d="M7.64408 14.6603C7.67853 14.643 7.71299 14.6267 7.74658 14.6112C8.33046 14.3407 8.92209 14.0874 9.51286 13.8342C9.54473 13.8342 9.59811 13.7971 9.62825 13.785C9.67389 13.7652 9.71954 13.7463 9.76518 13.7265C9.85302 13.6886 9.94087 13.6515 10.0278 13.6136C10.2035 13.5387 10.3783 13.4637 10.554 13.3888C10.9045 13.2389 11.255 13.089 11.6055 12.9383C12.3065 12.6385 13.0084 12.3378 13.7094 12.0381C14.4104 11.7383 15.1122 11.4376 15.8133 11.1379C16.5143 10.8381 17.2161 10.5374 17.9171 10.2377C18.6181 9.93788 19.32 9.63724 20.021 9.33746C20.1769 9.27027 20.3456 9.17035 20.5127 9.14106C20.6531 9.11608 20.79 9.06783 20.9312 9.04113C21.1991 8.99031 21.4945 8.96963 21.7511 9.08075C21.8398 9.11952 21.9216 9.17379 21.9896 9.24184C22.3152 9.56402 22.2695 10.0929 22.2006 10.5461C21.7209 13.7041 21.2413 16.8629 20.7607 20.021C20.6953 20.4543 20.6057 20.9298 20.2638 21.2037C19.9745 21.4354 19.5628 21.4613 19.2054 21.3631C18.848 21.264 18.5329 21.0564 18.2237 20.8523C16.9414 20.0029 15.6582 19.1535 14.3759 18.3041C14.0711 18.1026 13.7318 17.839 13.7352 17.4728C13.737 17.2523 13.8687 17.0559 14.003 16.881C15.1174 15.4269 16.7252 14.4277 17.9214 13.0408C18.0902 12.8452 18.2228 12.492 17.9912 12.3792C17.8534 12.312 17.6949 12.4033 17.5692 12.4903C15.9881 13.5886 14.4078 14.6878 12.8267 15.7862C12.3108 16.1445 11.77 16.5132 11.1482 16.6011C10.5919 16.6803 10.0322 16.5253 9.49392 16.3668C9.04266 16.2341 8.59225 16.098 8.14357 15.9576C7.90503 15.8835 7.65873 15.8034 7.47443 15.6354C7.29014 15.4674 7.18423 15.1849 7.29532 14.9609C7.36508 14.8205 7.50029 14.7318 7.64238 14.6594L7.64408 14.6603Z" fill="white"/>
</svg>
