<svg width="30" height="30" viewBox="0 0 30 30" fill="none" xmlns="http://www.w3.org/2000/svg">
<g clip-path="url(#clip0_3899_4)">
<circle cx="15" cy="15" r="15" fill="#D9D9D9"/>
<path d="M16 18.94H14.6L14.46 9H16.14L16 18.94ZM16.02 21.46C16.22 21.6333 16.32 21.88 16.32 22.2C16.32 22.52 16.22 22.7667 16.02 22.94C15.82 23.1133 15.58 23.2 15.3 23.2C15.02 23.2 14.78 23.1133 14.58 22.94C14.38 22.7667 14.28 22.52 14.28 22.2C14.28 21.88 14.38 21.6333 14.58 21.46C14.78 21.2867 15.02 21.2 15.3 21.2C15.58 21.2 15.82 21.2867 16.02 21.46Z" fill="#212121"/>
</g>
<defs>
<clipPath id="clip0_3899_4">
<rect width="30" height="30" fill="white"/>
</clipPath>
</defs>
</svg>
