<svg width="31" height="30" viewBox="0 0 31 30" fill="none" xmlns="http://www.w3.org/2000/svg">
<circle cx="15.5" cy="15" r="15" fill="#212121"/>
<path d="M17.7459 18.1249C14.7989 18.1249 12.4012 15.7257 12.4004 12.7778C12.4012 12.0305 13.0095 11.4229 13.7549 11.4229C13.8316 11.4229 13.9074 11.4293 13.98 11.4422C14.1398 11.4688 14.2914 11.5229 14.431 11.6044C14.4512 11.6165 14.4649 11.6359 14.4681 11.6585L14.7795 13.6219C14.7835 13.6445 14.7763 13.6679 14.761 13.6848C14.5891 13.8753 14.3697 14.0125 14.1252 14.0811L14.0075 14.1142L14.0518 14.2279C14.4536 15.2512 15.2716 16.0687 16.2954 16.4722L16.4092 16.5174L16.4422 16.3996C16.5108 16.155 16.648 15.9355 16.8384 15.7637C16.8521 15.7507 16.8706 15.7443 16.8892 15.7443C16.8932 15.7443 16.8972 15.7443 16.9021 15.7451L18.8649 16.0566C18.8883 16.0606 18.9077 16.0735 18.9198 16.0937C19.0005 16.2333 19.0545 16.3859 19.0819 16.5456C19.0948 16.6167 19.1005 16.6917 19.1005 16.77C19.1005 17.5164 18.493 18.1241 17.7459 18.1249Z" fill="white"/>
<path d="M22.9718 14.1093C22.8128 12.3129 21.9899 10.6465 20.6548 9.41742C19.3115 8.1811 17.5689 7.5 15.7465 7.5C11.7466 7.5 8.49213 10.7554 8.49213 14.7565C8.49213 16.0993 8.86242 17.4074 9.56349 18.5469L8 22.0089L13.0059 21.4755C13.8764 21.8322 14.7977 22.013 15.7457 22.013C15.9949 22.013 16.2507 22 16.5072 21.9734C16.7331 21.9492 16.9614 21.9137 17.1857 21.8685C20.5354 21.1914 22.9806 18.2177 23 14.7952V14.7565C23 14.5386 22.9903 14.3207 22.971 14.1101L22.9718 14.1093ZM13.1987 19.9559L10.4291 20.2513L11.2561 18.4186L11.0907 18.1967C11.0786 18.1805 11.0665 18.1644 11.0528 18.1458C10.3348 17.1541 9.95557 15.9823 9.95557 14.7573C9.95557 11.5632 12.5533 8.96469 15.7465 8.96469C18.7379 8.96469 21.2735 11.2993 21.518 14.2795C21.5309 14.4393 21.5382 14.5999 21.5382 14.7581C21.5382 14.8033 21.5374 14.8477 21.5365 14.8953C21.4752 17.5672 19.6092 19.8365 16.9985 20.4143C16.7993 20.4587 16.5952 20.4926 16.3919 20.5144C16.1805 20.5386 15.9635 20.5507 15.7481 20.5507C14.9809 20.5507 14.2354 20.4022 13.5311 20.1084C13.4529 20.077 13.3762 20.0431 13.3044 20.0084L13.1995 19.9575L13.1987 19.9559Z" fill="white"/>
</svg>
