<svg width="81" height="64" viewBox="0 0 81 64" fill="none" xmlns="http://www.w3.org/2000/svg">
<path d="M80.5 58C80.5 61.3137 77.8137 64 74.5 64H6.5C3.18629 64 0.5 61.3137 0.5 58V22C0.5 18.6863 3.18629 16 6.5 16H30.2744C33.3677 16 36.3416 14.8054 38.5754 12.6656L48.3165 3.33439C50.5503 1.19455 53.5241 0 56.6175 0H74.5C77.8137 0 80.5 2.68629 80.5 6V58Z" fill="#F93B1D"/>
<path d="M41.6672 37.664V38.384C41.6672 41.504 40.2272 47.312 29.6192 47.312H28.5632C18.0032 47.312 16.5152 41.528 16.5152 38.384V37.664C16.5152 34.496 18.0032 28.832 28.5632 28.832H29.6192C40.2032 28.832 41.6672 34.496 41.6672 37.664ZM35.8112 38.168V37.832C35.8112 35.816 34.5632 33.176 29.0912 33.176C23.5232 33.176 22.3712 35.816 22.3712 37.832V38.12C22.3712 40.136 23.6432 42.944 29.0912 42.944C34.5392 42.944 35.8112 40.208 35.8112 38.168ZM64.3239 47H42.5319V44.984C42.5319 42.344 43.0119 38.36 51.2919 36.632L55.4679 35.768C57.8919 35.312 58.1079 34.832 58.1079 34.28C58.1079 33.584 57.5559 32.936 53.6199 32.936C49.1319 32.936 48.7479 34.568 48.6759 35.456H42.8439V35.264C42.8439 33.224 43.7079 28.832 52.9479 28.832H53.9079C62.3079 28.832 64.0119 31.496 64.0119 34.328V34.376C64.0119 37.064 62.9799 38.768 57.1239 39.728L52.2279 40.544C48.0039 41.312 47.5239 42.272 47.5239 42.776H58.8279V40.472H64.3239V47Z" fill="white"/>
</svg>
