<svg width="81" height="64" viewBox="0 0 81 64" fill="none" xmlns="http://www.w3.org/2000/svg">
<path d="M0.5 6C0.5 2.68629 3.18629 0 6.5 0H74.5C77.8137 0 80.5 2.68629 80.5 6V42C80.5 45.3137 77.8137 48 74.5 48H50.7256C47.6323 48 44.6584 49.1946 42.4246 51.3344L32.6835 60.6656C30.4497 62.8054 27.4759 64 24.3825 64H6.5C3.18629 64 0.5 61.3137 0.5 58V6Z" fill="#F93B1D"/>
<path d="M47.757 24.664V25.384C47.757 28.504 46.317 34.312 35.709 34.312H34.653C24.093 34.312 22.605 28.528 22.605 25.384V24.664C22.605 21.496 24.093 15.832 34.653 15.832H35.709C46.293 15.832 47.757 21.496 47.757 24.664ZM41.901 25.168V24.832C41.901 22.816 40.653 20.176 35.181 20.176C29.613 20.176 28.461 22.816 28.461 24.832V25.12C28.461 27.136 29.733 29.944 35.181 29.944C40.629 29.944 41.901 27.208 41.901 25.168ZM53.0265 22.936H48.8745V19.576C51.9465 19.384 53.3865 18.016 54.2025 16.144H58.5705V34H53.0265V22.936Z" fill="white"/>
</svg>
