<svg width="81" height="64" viewBox="0 0 81 64" fill="none" xmlns="http://www.w3.org/2000/svg">
<path d="M80.5 58C80.5 61.3137 77.8137 64 74.5 64H6.5C3.18629 64 0.5 61.3137 0.5 58V22C0.5 18.6863 3.18629 16 6.5 16H30.2744C33.3677 16 36.3416 14.8054 38.5754 12.6656L48.3165 3.33439C50.5503 1.19455 53.5241 0 56.6175 0H74.5C77.8137 0 80.5 2.68629 80.5 6V58Z" fill="#F93B1D"/>
<path d="M41.632 37.664V38.384C41.632 41.504 40.192 47.312 29.584 47.312H28.528C17.968 47.312 16.48 41.528 16.48 38.384V37.664C16.48 34.496 17.968 28.832 28.528 28.832H29.584C40.168 28.832 41.632 34.496 41.632 37.664ZM35.776 38.168V37.832C35.776 35.816 34.528 33.176 29.056 33.176C23.488 33.176 22.336 35.816 22.336 37.832V38.12C22.336 40.136 23.608 42.944 29.056 42.944C34.504 42.944 35.776 40.208 35.776 38.168ZM42.5815 39.92L55.1575 29.072H61.1815V39.152H64.8055V43.304H61.1815V47H55.6615V43.304H42.5815V39.92ZM55.6615 39.152V33.536L49.1095 39.152H55.6615Z" fill="white"/>
</svg>
