<svg width="81" height="64" viewBox="0 0 81 64" fill="none" xmlns="http://www.w3.org/2000/svg">
<path d="M0.5 6C0.5 2.68629 3.18629 0 6.5 0H74.5C77.8137 0 80.5 2.68629 80.5 6V42C80.5 45.3137 77.8137 48 74.5 48H50.7256C47.6323 48 44.6584 49.1946 42.4246 51.3344L32.6835 60.6656C30.4497 62.8054 27.4759 64 24.3825 64H6.5C3.18629 64 0.5 61.3137 0.5 58V6Z" fill="#F93B1D"/>
<path d="M41.4211 24.664V25.384C41.4211 28.504 39.9811 34.312 29.3731 34.312H28.3171C17.7571 34.312 16.2691 28.528 16.2691 25.384V24.664C16.2691 21.496 17.7571 15.832 28.3171 15.832H29.3731C39.9571 15.832 41.4211 21.496 41.4211 24.664ZM35.5651 25.168V24.832C35.5651 22.816 34.3171 20.176 28.8451 20.176C23.2771 20.176 22.1251 22.816 22.1251 24.832V25.12C22.1251 27.136 23.3971 29.944 28.8451 29.944C34.2931 29.944 35.5651 27.208 35.5651 25.168ZM54.2026 34.312H53.0746C43.3546 34.312 42.4426 29.488 42.4426 27.664V27.472H48.3226C48.3946 27.928 48.6586 30.184 53.5786 30.184C58.6666 30.184 58.9546 28.912 58.9546 28.192C58.9546 27.496 58.5706 26.8 56.4586 26.8H50.1466V22.648H56.1706C58.1626 22.648 58.4986 22.072 58.4986 21.472C58.4986 20.824 58.1146 19.912 53.2186 19.912C48.4426 19.912 48.3946 21.568 48.3226 21.952H42.4906V21.712C42.4906 20.08 43.2106 15.832 52.6906 15.832H53.6986C63.2506 15.832 64.3546 18.52 64.3546 20.44V20.584C64.3546 22.456 62.6506 23.416 61.4986 23.68C62.9146 24.064 64.9066 25.288 64.9066 28.048V28.216C64.9066 31.216 63.0106 34.312 54.2026 34.312Z" fill="white"/>
</svg>
