<svg width="22" height="14" viewBox="0 0 22 14" fill="none" xmlns="http://www.w3.org/2000/svg">
<rect width="16" height="2" rx="1" fill="#212121"/>
<rect y="5" width="13" height="2" rx="1" fill="#212121"/>
<rect y="10" width="11" height="2" rx="1" fill="#212121"/>
<path d="M18.9018 0.86589C19.178 0.387598 19.7896 0.223722 20.2678 0.499864L21.1339 0.999864C21.6122 1.27601 21.776 1.8876 21.4999 2.36589L18.0569 8.32758C17.9188 8.56668 17.613 8.64859 17.3739 8.51053L15.6426 7.51099C15.4035 7.37292 15.3215 7.06712 15.4596 6.82797L18.9018 0.86589Z" fill="#212121"/>
<path d="M17.0879 10.0077C17.2089 9.79706 17.1365 9.52819 16.9261 9.40672L15.0903 8.34682C14.8801 8.22543 14.6112 8.29747 14.4898 8.50774C14.4193 8.62985 14.3754 8.76549 14.361 8.90575L14.0999 11.4531C14.0647 11.7966 14.4522 12.0204 14.7321 11.8181L16.8076 10.3183C16.9218 10.2357 17.0174 10.1298 17.0879 10.0077Z" fill="#212121"/>
</svg>
