<svg width="23" height="15" viewBox="0 0 23 15" fill="none" xmlns="http://www.w3.org/2000/svg">
<rect x="0.5" y="0.5" width="16" height="2" rx="1" fill="white"/>
<rect x="0.5" y="5.5" width="13" height="2" rx="1" fill="white"/>
<rect x="0.5" y="10.5" width="11" height="2" rx="1" fill="white"/>
<path d="M19.4018 1.36589C19.678 0.887598 20.2896 0.723722 20.7678 0.999864L21.6339 1.49986C22.1122 1.77601 22.276 2.3876 21.9999 2.86589L18.5569 8.82758C18.4188 9.06668 18.113 9.14859 17.8739 9.01053L16.1426 8.01099C15.9035 7.87292 15.8215 7.56712 15.9596 7.32797L19.4018 1.36589Z" fill="white"/>
<path d="M17.5879 10.5077C17.7089 10.2971 17.6365 10.0282 17.4261 9.90672L15.5903 8.84682C15.3801 8.72543 15.1112 8.79747 14.9898 9.00774C14.9193 9.12985 14.8754 9.26549 14.861 9.40575L14.5999 11.9531C14.5647 12.2966 14.9522 12.5204 15.2321 12.3181L17.3076 10.8183C17.4218 10.7357 17.5174 10.6298 17.5879 10.5077Z" fill="white"/>
</svg>
